%
M48
M72
T01C0.02362
T02C0.04000
T03C0.04724
%
T01
X177400Y224100
X111400Y146800
X101900Y124300
X116400Y105100
X160400Y128100
X176400Y8100
X21400Y118100
X21400Y175100
X7400Y224100
X8400Y8100
T02
X17650Y108350
X17650Y98350
X17650Y88350
X17650Y78350
X17650Y68350
X17650Y58350
T03
X140400Y209100
X126620Y209100
X112841Y209100
X99061Y209100
X68400Y209100
X54620Y209100
X40841Y209100
X27061Y209100
X156400Y31880
X156400Y18100
X113959Y26100
X100180Y26100
X86400Y26100
X61739Y27100
X47959Y27100
X34180Y27100
X20400Y27100
M30
