G75*
%MOIN*%
%OFA0B0*%
%FSLAX25Y25*%
%IPPOS*%
%LPD*%
%AMOC8*
5,1,8,0,0,1.08239X$1,22.5*
%
%ADD10C,0.00000*%
%ADD11R,0.01250X0.06250*%
%ADD12R,0.06250X0.01250*%
%ADD13C,0.00800*%
%ADD14R,0.01250X0.23750*%
%ADD15R,0.13600X0.01400*%
%ADD16C,0.01600*%
%ADD17R,0.04724X0.03150*%
%ADD18R,0.03150X0.04724*%
%ADD19R,0.01575X0.04724*%
%ADD20OC8,0.06000*%
%ADD21R,0.04331X0.03937*%
%ADD22R,0.06102X0.03937*%
%ADD23R,0.05512X0.03150*%
%ADD24R,0.05906X0.05906*%
%ADD25R,0.06890X0.02756*%
%ADD26R,0.05906X0.05118*%
%ADD27R,0.03937X0.06102*%
%ADD28OC8,0.08000*%
%ADD29OC8,0.09500*%
%ADD30R,0.01181X0.07724*%
%ADD31R,0.07724X0.01181*%
%ADD32C,0.01200*%
%ADD33C,0.01000*%
%ADD34R,0.03562X0.03562*%
D10*
X0001900Y0002100D02*
X0001900Y0230801D01*
X0001900Y0231100D02*
X0183071Y0231100D01*
X0183071Y0002100D01*
X0001900Y0002100D01*
X0007219Y0008100D02*
X0007221Y0008169D01*
X0007227Y0008237D01*
X0007237Y0008305D01*
X0007251Y0008372D01*
X0007269Y0008439D01*
X0007290Y0008504D01*
X0007316Y0008568D01*
X0007345Y0008630D01*
X0007377Y0008690D01*
X0007413Y0008749D01*
X0007453Y0008805D01*
X0007495Y0008859D01*
X0007541Y0008910D01*
X0007590Y0008959D01*
X0007641Y0009005D01*
X0007695Y0009047D01*
X0007751Y0009087D01*
X0007809Y0009123D01*
X0007870Y0009155D01*
X0007932Y0009184D01*
X0007996Y0009210D01*
X0008061Y0009231D01*
X0008128Y0009249D01*
X0008195Y0009263D01*
X0008263Y0009273D01*
X0008331Y0009279D01*
X0008400Y0009281D01*
X0008469Y0009279D01*
X0008537Y0009273D01*
X0008605Y0009263D01*
X0008672Y0009249D01*
X0008739Y0009231D01*
X0008804Y0009210D01*
X0008868Y0009184D01*
X0008930Y0009155D01*
X0008990Y0009123D01*
X0009049Y0009087D01*
X0009105Y0009047D01*
X0009159Y0009005D01*
X0009210Y0008959D01*
X0009259Y0008910D01*
X0009305Y0008859D01*
X0009347Y0008805D01*
X0009387Y0008749D01*
X0009423Y0008690D01*
X0009455Y0008630D01*
X0009484Y0008568D01*
X0009510Y0008504D01*
X0009531Y0008439D01*
X0009549Y0008372D01*
X0009563Y0008305D01*
X0009573Y0008237D01*
X0009579Y0008169D01*
X0009581Y0008100D01*
X0009579Y0008031D01*
X0009573Y0007963D01*
X0009563Y0007895D01*
X0009549Y0007828D01*
X0009531Y0007761D01*
X0009510Y0007696D01*
X0009484Y0007632D01*
X0009455Y0007570D01*
X0009423Y0007509D01*
X0009387Y0007451D01*
X0009347Y0007395D01*
X0009305Y0007341D01*
X0009259Y0007290D01*
X0009210Y0007241D01*
X0009159Y0007195D01*
X0009105Y0007153D01*
X0009049Y0007113D01*
X0008991Y0007077D01*
X0008930Y0007045D01*
X0008868Y0007016D01*
X0008804Y0006990D01*
X0008739Y0006969D01*
X0008672Y0006951D01*
X0008605Y0006937D01*
X0008537Y0006927D01*
X0008469Y0006921D01*
X0008400Y0006919D01*
X0008331Y0006921D01*
X0008263Y0006927D01*
X0008195Y0006937D01*
X0008128Y0006951D01*
X0008061Y0006969D01*
X0007996Y0006990D01*
X0007932Y0007016D01*
X0007870Y0007045D01*
X0007809Y0007077D01*
X0007751Y0007113D01*
X0007695Y0007153D01*
X0007641Y0007195D01*
X0007590Y0007241D01*
X0007541Y0007290D01*
X0007495Y0007341D01*
X0007453Y0007395D01*
X0007413Y0007451D01*
X0007377Y0007509D01*
X0007345Y0007570D01*
X0007316Y0007632D01*
X0007290Y0007696D01*
X0007269Y0007761D01*
X0007251Y0007828D01*
X0007237Y0007895D01*
X0007227Y0007963D01*
X0007221Y0008031D01*
X0007219Y0008100D01*
X0175219Y0008100D02*
X0175221Y0008169D01*
X0175227Y0008237D01*
X0175237Y0008305D01*
X0175251Y0008372D01*
X0175269Y0008439D01*
X0175290Y0008504D01*
X0175316Y0008568D01*
X0175345Y0008630D01*
X0175377Y0008690D01*
X0175413Y0008749D01*
X0175453Y0008805D01*
X0175495Y0008859D01*
X0175541Y0008910D01*
X0175590Y0008959D01*
X0175641Y0009005D01*
X0175695Y0009047D01*
X0175751Y0009087D01*
X0175809Y0009123D01*
X0175870Y0009155D01*
X0175932Y0009184D01*
X0175996Y0009210D01*
X0176061Y0009231D01*
X0176128Y0009249D01*
X0176195Y0009263D01*
X0176263Y0009273D01*
X0176331Y0009279D01*
X0176400Y0009281D01*
X0176469Y0009279D01*
X0176537Y0009273D01*
X0176605Y0009263D01*
X0176672Y0009249D01*
X0176739Y0009231D01*
X0176804Y0009210D01*
X0176868Y0009184D01*
X0176930Y0009155D01*
X0176990Y0009123D01*
X0177049Y0009087D01*
X0177105Y0009047D01*
X0177159Y0009005D01*
X0177210Y0008959D01*
X0177259Y0008910D01*
X0177305Y0008859D01*
X0177347Y0008805D01*
X0177387Y0008749D01*
X0177423Y0008690D01*
X0177455Y0008630D01*
X0177484Y0008568D01*
X0177510Y0008504D01*
X0177531Y0008439D01*
X0177549Y0008372D01*
X0177563Y0008305D01*
X0177573Y0008237D01*
X0177579Y0008169D01*
X0177581Y0008100D01*
X0177579Y0008031D01*
X0177573Y0007963D01*
X0177563Y0007895D01*
X0177549Y0007828D01*
X0177531Y0007761D01*
X0177510Y0007696D01*
X0177484Y0007632D01*
X0177455Y0007570D01*
X0177423Y0007509D01*
X0177387Y0007451D01*
X0177347Y0007395D01*
X0177305Y0007341D01*
X0177259Y0007290D01*
X0177210Y0007241D01*
X0177159Y0007195D01*
X0177105Y0007153D01*
X0177049Y0007113D01*
X0176991Y0007077D01*
X0176930Y0007045D01*
X0176868Y0007016D01*
X0176804Y0006990D01*
X0176739Y0006969D01*
X0176672Y0006951D01*
X0176605Y0006937D01*
X0176537Y0006927D01*
X0176469Y0006921D01*
X0176400Y0006919D01*
X0176331Y0006921D01*
X0176263Y0006927D01*
X0176195Y0006937D01*
X0176128Y0006951D01*
X0176061Y0006969D01*
X0175996Y0006990D01*
X0175932Y0007016D01*
X0175870Y0007045D01*
X0175809Y0007077D01*
X0175751Y0007113D01*
X0175695Y0007153D01*
X0175641Y0007195D01*
X0175590Y0007241D01*
X0175541Y0007290D01*
X0175495Y0007341D01*
X0175453Y0007395D01*
X0175413Y0007451D01*
X0175377Y0007509D01*
X0175345Y0007570D01*
X0175316Y0007632D01*
X0175290Y0007696D01*
X0175269Y0007761D01*
X0175251Y0007828D01*
X0175237Y0007895D01*
X0175227Y0007963D01*
X0175221Y0008031D01*
X0175219Y0008100D01*
X0176219Y0224100D02*
X0176221Y0224169D01*
X0176227Y0224237D01*
X0176237Y0224305D01*
X0176251Y0224372D01*
X0176269Y0224439D01*
X0176290Y0224504D01*
X0176316Y0224568D01*
X0176345Y0224630D01*
X0176377Y0224690D01*
X0176413Y0224749D01*
X0176453Y0224805D01*
X0176495Y0224859D01*
X0176541Y0224910D01*
X0176590Y0224959D01*
X0176641Y0225005D01*
X0176695Y0225047D01*
X0176751Y0225087D01*
X0176809Y0225123D01*
X0176870Y0225155D01*
X0176932Y0225184D01*
X0176996Y0225210D01*
X0177061Y0225231D01*
X0177128Y0225249D01*
X0177195Y0225263D01*
X0177263Y0225273D01*
X0177331Y0225279D01*
X0177400Y0225281D01*
X0177469Y0225279D01*
X0177537Y0225273D01*
X0177605Y0225263D01*
X0177672Y0225249D01*
X0177739Y0225231D01*
X0177804Y0225210D01*
X0177868Y0225184D01*
X0177930Y0225155D01*
X0177990Y0225123D01*
X0178049Y0225087D01*
X0178105Y0225047D01*
X0178159Y0225005D01*
X0178210Y0224959D01*
X0178259Y0224910D01*
X0178305Y0224859D01*
X0178347Y0224805D01*
X0178387Y0224749D01*
X0178423Y0224690D01*
X0178455Y0224630D01*
X0178484Y0224568D01*
X0178510Y0224504D01*
X0178531Y0224439D01*
X0178549Y0224372D01*
X0178563Y0224305D01*
X0178573Y0224237D01*
X0178579Y0224169D01*
X0178581Y0224100D01*
X0178579Y0224031D01*
X0178573Y0223963D01*
X0178563Y0223895D01*
X0178549Y0223828D01*
X0178531Y0223761D01*
X0178510Y0223696D01*
X0178484Y0223632D01*
X0178455Y0223570D01*
X0178423Y0223509D01*
X0178387Y0223451D01*
X0178347Y0223395D01*
X0178305Y0223341D01*
X0178259Y0223290D01*
X0178210Y0223241D01*
X0178159Y0223195D01*
X0178105Y0223153D01*
X0178049Y0223113D01*
X0177991Y0223077D01*
X0177930Y0223045D01*
X0177868Y0223016D01*
X0177804Y0222990D01*
X0177739Y0222969D01*
X0177672Y0222951D01*
X0177605Y0222937D01*
X0177537Y0222927D01*
X0177469Y0222921D01*
X0177400Y0222919D01*
X0177331Y0222921D01*
X0177263Y0222927D01*
X0177195Y0222937D01*
X0177128Y0222951D01*
X0177061Y0222969D01*
X0176996Y0222990D01*
X0176932Y0223016D01*
X0176870Y0223045D01*
X0176809Y0223077D01*
X0176751Y0223113D01*
X0176695Y0223153D01*
X0176641Y0223195D01*
X0176590Y0223241D01*
X0176541Y0223290D01*
X0176495Y0223341D01*
X0176453Y0223395D01*
X0176413Y0223451D01*
X0176377Y0223509D01*
X0176345Y0223570D01*
X0176316Y0223632D01*
X0176290Y0223696D01*
X0176269Y0223761D01*
X0176251Y0223828D01*
X0176237Y0223895D01*
X0176227Y0223963D01*
X0176221Y0224031D01*
X0176219Y0224100D01*
X0006219Y0224100D02*
X0006221Y0224169D01*
X0006227Y0224237D01*
X0006237Y0224305D01*
X0006251Y0224372D01*
X0006269Y0224439D01*
X0006290Y0224504D01*
X0006316Y0224568D01*
X0006345Y0224630D01*
X0006377Y0224690D01*
X0006413Y0224749D01*
X0006453Y0224805D01*
X0006495Y0224859D01*
X0006541Y0224910D01*
X0006590Y0224959D01*
X0006641Y0225005D01*
X0006695Y0225047D01*
X0006751Y0225087D01*
X0006809Y0225123D01*
X0006870Y0225155D01*
X0006932Y0225184D01*
X0006996Y0225210D01*
X0007061Y0225231D01*
X0007128Y0225249D01*
X0007195Y0225263D01*
X0007263Y0225273D01*
X0007331Y0225279D01*
X0007400Y0225281D01*
X0007469Y0225279D01*
X0007537Y0225273D01*
X0007605Y0225263D01*
X0007672Y0225249D01*
X0007739Y0225231D01*
X0007804Y0225210D01*
X0007868Y0225184D01*
X0007930Y0225155D01*
X0007990Y0225123D01*
X0008049Y0225087D01*
X0008105Y0225047D01*
X0008159Y0225005D01*
X0008210Y0224959D01*
X0008259Y0224910D01*
X0008305Y0224859D01*
X0008347Y0224805D01*
X0008387Y0224749D01*
X0008423Y0224690D01*
X0008455Y0224630D01*
X0008484Y0224568D01*
X0008510Y0224504D01*
X0008531Y0224439D01*
X0008549Y0224372D01*
X0008563Y0224305D01*
X0008573Y0224237D01*
X0008579Y0224169D01*
X0008581Y0224100D01*
X0008579Y0224031D01*
X0008573Y0223963D01*
X0008563Y0223895D01*
X0008549Y0223828D01*
X0008531Y0223761D01*
X0008510Y0223696D01*
X0008484Y0223632D01*
X0008455Y0223570D01*
X0008423Y0223509D01*
X0008387Y0223451D01*
X0008347Y0223395D01*
X0008305Y0223341D01*
X0008259Y0223290D01*
X0008210Y0223241D01*
X0008159Y0223195D01*
X0008105Y0223153D01*
X0008049Y0223113D01*
X0007991Y0223077D01*
X0007930Y0223045D01*
X0007868Y0223016D01*
X0007804Y0222990D01*
X0007739Y0222969D01*
X0007672Y0222951D01*
X0007605Y0222937D01*
X0007537Y0222927D01*
X0007469Y0222921D01*
X0007400Y0222919D01*
X0007331Y0222921D01*
X0007263Y0222927D01*
X0007195Y0222937D01*
X0007128Y0222951D01*
X0007061Y0222969D01*
X0006996Y0222990D01*
X0006932Y0223016D01*
X0006870Y0223045D01*
X0006809Y0223077D01*
X0006751Y0223113D01*
X0006695Y0223153D01*
X0006641Y0223195D01*
X0006590Y0223241D01*
X0006541Y0223290D01*
X0006495Y0223341D01*
X0006453Y0223395D01*
X0006413Y0223451D01*
X0006377Y0223509D01*
X0006345Y0223570D01*
X0006316Y0223632D01*
X0006290Y0223696D01*
X0006269Y0223761D01*
X0006251Y0223828D01*
X0006237Y0223895D01*
X0006227Y0223963D01*
X0006221Y0224031D01*
X0006219Y0224100D01*
D11*
X0112775Y0185975D03*
X0115275Y0185975D03*
X0117775Y0185975D03*
X0117775Y0173475D03*
X0115275Y0173475D03*
X0112775Y0173475D03*
D12*
X0115275Y0179725D03*
D13*
X0110753Y0179567D02*
X0110753Y0181702D01*
X0110753Y0180634D02*
X0107550Y0180634D01*
X0110753Y0178019D02*
X0110753Y0175884D01*
X0110753Y0176951D02*
X0107550Y0176951D01*
D14*
X0105525Y0179625D03*
X0120275Y0179625D03*
D15*
X0112900Y0190800D03*
X0112900Y0168500D03*
D16*
X0001900Y0230900D02*
X0001900Y0002100D01*
X0183200Y0002100D01*
X0183200Y0230900D01*
X0001900Y0230900D01*
X0005100Y0227700D02*
X0180000Y0227700D01*
X0180000Y0226564D01*
X0179429Y0227136D01*
X0178112Y0227681D01*
X0176688Y0227681D01*
X0175371Y0227136D01*
X0174364Y0226129D01*
X0173819Y0224812D01*
X0173819Y0223388D01*
X0174364Y0222071D01*
X0175371Y0221064D01*
X0176688Y0220519D01*
X0178112Y0220519D01*
X0179429Y0221064D01*
X0180000Y0221636D01*
X0180000Y0005300D01*
X0178664Y0005300D01*
X0179436Y0006071D01*
X0179981Y0007388D01*
X0179981Y0008812D01*
X0179436Y0010129D01*
X0178429Y0011136D01*
X0177112Y0011681D01*
X0175688Y0011681D01*
X0174371Y0011136D01*
X0173364Y0010129D01*
X0172819Y0008812D01*
X0172819Y0007388D01*
X0173364Y0006071D01*
X0174136Y0005300D01*
X0010664Y0005300D01*
X0011436Y0006071D01*
X0011981Y0007388D01*
X0011981Y0008812D01*
X0011436Y0010129D01*
X0010429Y0011136D01*
X0009112Y0011681D01*
X0007688Y0011681D01*
X0006371Y0011136D01*
X0005364Y0010129D01*
X0005100Y0009491D01*
X0005100Y0221336D01*
X0005371Y0221064D01*
X0006688Y0220519D01*
X0008112Y0220519D01*
X0009429Y0221064D01*
X0010436Y0222071D01*
X0010981Y0223388D01*
X0010981Y0224812D01*
X0010436Y0226129D01*
X0009429Y0227136D01*
X0008112Y0227681D01*
X0006688Y0227681D01*
X0005371Y0227136D01*
X0005100Y0226864D01*
X0005100Y0227700D01*
X0005100Y0227490D02*
X0006227Y0227490D01*
X0008573Y0227490D02*
X0176227Y0227490D01*
X0178573Y0227490D02*
X0180000Y0227490D01*
X0174266Y0225892D02*
X0010534Y0225892D01*
X0010981Y0224293D02*
X0173819Y0224293D01*
X0174106Y0222695D02*
X0154976Y0222695D01*
X0155099Y0222643D02*
X0153997Y0223100D01*
X0017803Y0223100D01*
X0016701Y0222643D01*
X0015857Y0221799D01*
X0006857Y0212799D01*
X0006400Y0211697D01*
X0006400Y0079503D01*
X0006857Y0078401D01*
X0009451Y0075807D01*
X0010553Y0075350D01*
X0013013Y0075350D01*
X0015413Y0072950D01*
X0019887Y0072950D01*
X0022037Y0075100D01*
X0031997Y0075100D01*
X0033099Y0075557D01*
X0033943Y0076401D01*
X0044943Y0087401D01*
X0045400Y0088503D01*
X0045400Y0091857D01*
X0046961Y0093419D01*
X0050240Y0093419D01*
X0051122Y0093784D01*
X0051797Y0094459D01*
X0052162Y0095341D01*
X0052162Y0098019D01*
X0053573Y0098019D01*
X0053573Y0093616D01*
X0029901Y0069943D01*
X0029057Y0069099D01*
X0028600Y0067997D01*
X0028600Y0065788D01*
X0028300Y0065488D01*
X0027691Y0066097D01*
X0026809Y0066462D01*
X0022704Y0066462D01*
X0021822Y0066097D01*
X0021147Y0065422D01*
X0020782Y0064540D01*
X0020782Y0062855D01*
X0019887Y0063750D01*
X0015413Y0063750D01*
X0012250Y0060587D01*
X0012250Y0056113D01*
X0015413Y0052950D01*
X0019887Y0052950D01*
X0022891Y0055954D01*
X0023510Y0056210D01*
X0024237Y0056938D01*
X0026809Y0056938D01*
X0027691Y0057303D01*
X0028300Y0057912D01*
X0028909Y0057303D01*
X0029791Y0056938D01*
X0030832Y0056938D01*
X0018130Y0040073D01*
X0017857Y0039799D01*
X0017774Y0039600D01*
X0017645Y0039428D01*
X0017548Y0039054D01*
X0017400Y0038697D01*
X0017400Y0038481D01*
X0017346Y0038273D01*
X0017400Y0037890D01*
X0017400Y0033151D01*
X0014000Y0029751D01*
X0014000Y0024449D01*
X0017749Y0020700D01*
X0023051Y0020700D01*
X0026800Y0024449D01*
X0026800Y0029751D01*
X0023400Y0033151D01*
X0023400Y0037097D01*
X0045886Y0066952D01*
X0032012Y0042964D01*
X0031884Y0042839D01*
X0031716Y0042451D01*
X0031504Y0042085D01*
X0031481Y0041908D01*
X0031410Y0041744D01*
X0031403Y0041321D01*
X0031348Y0040902D01*
X0031394Y0040729D01*
X0031276Y0033247D01*
X0027780Y0029751D01*
X0027780Y0024449D01*
X0031529Y0020700D01*
X0036830Y0020700D01*
X0040580Y0024449D01*
X0040580Y0029751D01*
X0037274Y0033057D01*
X0037387Y0040273D01*
X0052200Y0065884D01*
X0045223Y0048534D01*
X0045000Y0047997D01*
X0045000Y0047981D01*
X0044994Y0047966D01*
X0045000Y0047384D01*
X0045000Y0033192D01*
X0041559Y0029751D01*
X0041559Y0024449D01*
X0045308Y0020700D01*
X0050610Y0020700D01*
X0054359Y0024449D01*
X0054359Y0029751D01*
X0051000Y0033110D01*
X0051000Y0046819D01*
X0062433Y0075251D01*
X0062496Y0033500D01*
X0059088Y0033500D01*
X0055339Y0029751D01*
X0055339Y0024449D01*
X0059088Y0020700D01*
X0064390Y0020700D01*
X0068139Y0024449D01*
X0068139Y0029391D01*
X0068272Y0029713D01*
X0068500Y0030265D01*
X0068500Y0030267D01*
X0068501Y0030269D01*
X0068500Y0030866D01*
X0068500Y0031458D01*
X0068499Y0031460D01*
X0068474Y0048403D01*
X0071400Y0044990D01*
X0071400Y0016478D01*
X0071346Y0016266D01*
X0071400Y0015887D01*
X0071400Y0015503D01*
X0071484Y0015301D01*
X0071515Y0015085D01*
X0071710Y0014755D01*
X0071857Y0014401D01*
X0072011Y0014246D01*
X0072123Y0014058D01*
X0072429Y0013828D01*
X0072701Y0013557D01*
X0072903Y0013473D01*
X0076429Y0010828D01*
X0076701Y0010557D01*
X0076903Y0010473D01*
X0077077Y0010342D01*
X0077449Y0010247D01*
X0077803Y0010100D01*
X0078022Y0010100D01*
X0078234Y0010046D01*
X0078613Y0010100D01*
X0136997Y0010100D01*
X0138099Y0010557D01*
X0149099Y0021557D01*
X0149943Y0022401D01*
X0150400Y0023503D01*
X0150400Y0028829D01*
X0153749Y0025480D01*
X0159051Y0025480D01*
X0162451Y0028880D01*
X0166997Y0028880D01*
X0168099Y0029336D01*
X0172099Y0033336D01*
X0172099Y0033336D01*
X0172943Y0034180D01*
X0173400Y0035283D01*
X0173400Y0074094D01*
X0173499Y0139801D01*
X0173500Y0139803D01*
X0173500Y0139806D01*
X0173501Y0139808D01*
X0173500Y0140399D01*
X0173501Y0140992D01*
X0173500Y0140994D01*
X0173500Y0140997D01*
X0173499Y0140999D01*
X0173400Y0203099D01*
X0173400Y0203697D01*
X0173399Y0203699D01*
X0173399Y0203702D01*
X0173173Y0204245D01*
X0172943Y0204799D01*
X0172941Y0204801D01*
X0172941Y0204803D01*
X0172522Y0205221D01*
X0155943Y0221799D01*
X0155099Y0222643D01*
X0156647Y0221096D02*
X0175340Y0221096D01*
X0179460Y0221096D02*
X0180000Y0221096D01*
X0180000Y0219498D02*
X0158245Y0219498D01*
X0159844Y0217899D02*
X0180000Y0217899D01*
X0180000Y0216301D02*
X0161442Y0216301D01*
X0163041Y0214702D02*
X0180000Y0214702D01*
X0180000Y0213103D02*
X0164639Y0213103D01*
X0166238Y0211505D02*
X0180000Y0211505D01*
X0180000Y0209906D02*
X0167836Y0209906D01*
X0169435Y0208308D02*
X0180000Y0208308D01*
X0180000Y0206709D02*
X0171033Y0206709D01*
X0172632Y0205111D02*
X0180000Y0205111D01*
X0180000Y0203512D02*
X0173400Y0203512D01*
X0173402Y0201914D02*
X0180000Y0201914D01*
X0180000Y0200315D02*
X0173404Y0200315D01*
X0173407Y0198717D02*
X0180000Y0198717D01*
X0180000Y0197118D02*
X0173410Y0197118D01*
X0173412Y0195520D02*
X0180000Y0195520D01*
X0180000Y0193921D02*
X0173415Y0193921D01*
X0173417Y0192323D02*
X0180000Y0192323D01*
X0180000Y0190724D02*
X0173420Y0190724D01*
X0173422Y0189126D02*
X0180000Y0189126D01*
X0180000Y0187527D02*
X0173425Y0187527D01*
X0173427Y0185929D02*
X0180000Y0185929D01*
X0180000Y0184330D02*
X0173430Y0184330D01*
X0173432Y0182732D02*
X0180000Y0182732D01*
X0180000Y0181133D02*
X0173435Y0181133D01*
X0173438Y0179535D02*
X0180000Y0179535D01*
X0180000Y0177936D02*
X0173440Y0177936D01*
X0173443Y0176338D02*
X0180000Y0176338D01*
X0180000Y0174739D02*
X0173445Y0174739D01*
X0173448Y0173141D02*
X0180000Y0173141D01*
X0180000Y0171542D02*
X0173450Y0171542D01*
X0173453Y0169944D02*
X0180000Y0169944D01*
X0180000Y0168345D02*
X0173455Y0168345D01*
X0173458Y0166747D02*
X0180000Y0166747D01*
X0180000Y0165148D02*
X0173461Y0165148D01*
X0173463Y0163550D02*
X0180000Y0163550D01*
X0180000Y0161951D02*
X0173466Y0161951D01*
X0173468Y0160353D02*
X0180000Y0160353D01*
X0180000Y0158754D02*
X0173471Y0158754D01*
X0173473Y0157156D02*
X0180000Y0157156D01*
X0180000Y0155557D02*
X0173476Y0155557D01*
X0173478Y0153959D02*
X0180000Y0153959D01*
X0180000Y0152360D02*
X0173481Y0152360D01*
X0173483Y0150762D02*
X0180000Y0150762D01*
X0180000Y0149163D02*
X0173486Y0149163D01*
X0173489Y0147565D02*
X0180000Y0147565D01*
X0180000Y0145966D02*
X0173491Y0145966D01*
X0173494Y0144368D02*
X0180000Y0144368D01*
X0180000Y0142769D02*
X0173496Y0142769D01*
X0173499Y0141170D02*
X0180000Y0141170D01*
X0180000Y0139572D02*
X0173499Y0139572D01*
X0173496Y0137973D02*
X0180000Y0137973D01*
X0180000Y0136375D02*
X0173494Y0136375D01*
X0173492Y0134776D02*
X0180000Y0134776D01*
X0180000Y0133178D02*
X0173489Y0133178D01*
X0173487Y0131579D02*
X0180000Y0131579D01*
X0180000Y0129981D02*
X0173484Y0129981D01*
X0173482Y0128382D02*
X0180000Y0128382D01*
X0180000Y0126784D02*
X0173479Y0126784D01*
X0173477Y0125185D02*
X0180000Y0125185D01*
X0180000Y0123587D02*
X0173475Y0123587D01*
X0173472Y0121988D02*
X0180000Y0121988D01*
X0180000Y0120390D02*
X0173470Y0120390D01*
X0173467Y0118791D02*
X0180000Y0118791D01*
X0180000Y0117193D02*
X0173465Y0117193D01*
X0173463Y0115594D02*
X0180000Y0115594D01*
X0180000Y0113996D02*
X0173460Y0113996D01*
X0173458Y0112397D02*
X0180000Y0112397D01*
X0180000Y0110799D02*
X0173455Y0110799D01*
X0173453Y0109200D02*
X0180000Y0109200D01*
X0180000Y0107602D02*
X0173451Y0107602D01*
X0173448Y0106003D02*
X0180000Y0106003D01*
X0180000Y0104405D02*
X0173446Y0104405D01*
X0173443Y0102806D02*
X0180000Y0102806D01*
X0180000Y0101208D02*
X0173441Y0101208D01*
X0173438Y0099609D02*
X0180000Y0099609D01*
X0180000Y0098011D02*
X0173436Y0098011D01*
X0173434Y0096412D02*
X0180000Y0096412D01*
X0180000Y0094814D02*
X0173431Y0094814D01*
X0173429Y0093215D02*
X0180000Y0093215D01*
X0180000Y0091617D02*
X0173426Y0091617D01*
X0173424Y0090018D02*
X0180000Y0090018D01*
X0180000Y0088420D02*
X0173422Y0088420D01*
X0173419Y0086821D02*
X0180000Y0086821D01*
X0180000Y0085223D02*
X0173417Y0085223D01*
X0173414Y0083624D02*
X0180000Y0083624D01*
X0180000Y0082026D02*
X0173412Y0082026D01*
X0173410Y0080427D02*
X0180000Y0080427D01*
X0180000Y0078829D02*
X0173407Y0078829D01*
X0173405Y0077230D02*
X0180000Y0077230D01*
X0180000Y0075632D02*
X0173402Y0075632D01*
X0173400Y0074033D02*
X0180000Y0074033D01*
X0180000Y0072434D02*
X0173400Y0072434D01*
X0173400Y0070836D02*
X0180000Y0070836D01*
X0180000Y0069237D02*
X0173400Y0069237D01*
X0173400Y0067639D02*
X0180000Y0067639D01*
X0180000Y0066040D02*
X0173400Y0066040D01*
X0173400Y0064442D02*
X0180000Y0064442D01*
X0180000Y0062843D02*
X0173400Y0062843D01*
X0173400Y0061245D02*
X0180000Y0061245D01*
X0180000Y0059646D02*
X0173400Y0059646D01*
X0173400Y0058048D02*
X0180000Y0058048D01*
X0180000Y0056449D02*
X0173400Y0056449D01*
X0173400Y0054851D02*
X0180000Y0054851D01*
X0180000Y0053252D02*
X0173400Y0053252D01*
X0173400Y0051654D02*
X0180000Y0051654D01*
X0180000Y0050055D02*
X0173400Y0050055D01*
X0173400Y0048457D02*
X0180000Y0048457D01*
X0180000Y0046858D02*
X0173400Y0046858D01*
X0173400Y0045260D02*
X0180000Y0045260D01*
X0180000Y0043661D02*
X0173400Y0043661D01*
X0173400Y0042063D02*
X0180000Y0042063D01*
X0180000Y0040464D02*
X0173400Y0040464D01*
X0173400Y0038866D02*
X0180000Y0038866D01*
X0180000Y0037267D02*
X0173400Y0037267D01*
X0173400Y0035669D02*
X0180000Y0035669D01*
X0180000Y0034070D02*
X0172833Y0034070D01*
X0171235Y0032472D02*
X0180000Y0032472D01*
X0180000Y0030873D02*
X0169636Y0030873D01*
X0167951Y0029275D02*
X0180000Y0029275D01*
X0180000Y0027676D02*
X0161248Y0027676D01*
X0159649Y0026078D02*
X0180000Y0026078D01*
X0180000Y0024479D02*
X0150400Y0024479D01*
X0150400Y0026078D02*
X0153151Y0026078D01*
X0151552Y0027676D02*
X0150400Y0027676D01*
X0150142Y0022881D02*
X0180000Y0022881D01*
X0180000Y0021282D02*
X0148825Y0021282D01*
X0147226Y0019684D02*
X0180000Y0019684D01*
X0180000Y0018085D02*
X0145628Y0018085D01*
X0144029Y0016487D02*
X0180000Y0016487D01*
X0180000Y0014888D02*
X0142431Y0014888D01*
X0140832Y0013290D02*
X0180000Y0013290D01*
X0180000Y0011691D02*
X0139234Y0011691D01*
X0172819Y0008494D02*
X0011981Y0008494D01*
X0011777Y0006896D02*
X0173023Y0006896D01*
X0173349Y0010093D02*
X0078561Y0010093D01*
X0078051Y0010093D02*
X0011451Y0010093D01*
X0005349Y0010093D02*
X0005100Y0010093D01*
X0005100Y0011691D02*
X0075279Y0011691D01*
X0073147Y0013290D02*
X0005100Y0013290D01*
X0005100Y0014888D02*
X0071631Y0014888D01*
X0071400Y0016487D02*
X0005100Y0016487D01*
X0005100Y0018085D02*
X0071400Y0018085D01*
X0071400Y0019684D02*
X0005100Y0019684D01*
X0005100Y0021282D02*
X0017167Y0021282D01*
X0015568Y0022881D02*
X0005100Y0022881D01*
X0005100Y0024479D02*
X0014000Y0024479D01*
X0014000Y0026078D02*
X0005100Y0026078D01*
X0005100Y0027676D02*
X0014000Y0027676D01*
X0014000Y0029275D02*
X0005100Y0029275D01*
X0005100Y0030873D02*
X0015122Y0030873D01*
X0016721Y0032472D02*
X0005100Y0032472D01*
X0005100Y0034070D02*
X0017400Y0034070D01*
X0017400Y0035669D02*
X0005100Y0035669D01*
X0005100Y0037267D02*
X0017400Y0037267D01*
X0017470Y0038866D02*
X0005100Y0038866D01*
X0005100Y0040464D02*
X0018425Y0040464D01*
X0019629Y0042063D02*
X0005100Y0042063D01*
X0005100Y0043661D02*
X0020833Y0043661D01*
X0022037Y0045260D02*
X0005100Y0045260D01*
X0005100Y0046858D02*
X0023241Y0046858D01*
X0024445Y0048457D02*
X0005100Y0048457D01*
X0005100Y0050055D02*
X0025649Y0050055D01*
X0026853Y0051654D02*
X0005100Y0051654D01*
X0005100Y0053252D02*
X0015111Y0053252D01*
X0013512Y0054851D02*
X0005100Y0054851D01*
X0005100Y0056449D02*
X0012250Y0056449D01*
X0012250Y0058048D02*
X0005100Y0058048D01*
X0005100Y0059646D02*
X0012250Y0059646D01*
X0012908Y0061245D02*
X0005100Y0061245D01*
X0005100Y0062843D02*
X0014507Y0062843D01*
X0020782Y0064442D02*
X0005100Y0064442D01*
X0005100Y0066040D02*
X0021766Y0066040D01*
X0027747Y0066040D02*
X0028600Y0066040D01*
X0028600Y0067639D02*
X0005100Y0067639D01*
X0005100Y0069237D02*
X0029195Y0069237D01*
X0030793Y0070836D02*
X0005100Y0070836D01*
X0005100Y0072434D02*
X0032392Y0072434D01*
X0033990Y0074033D02*
X0020970Y0074033D01*
X0014330Y0074033D02*
X0005100Y0074033D01*
X0005100Y0075632D02*
X0009874Y0075632D01*
X0008027Y0077230D02*
X0005100Y0077230D01*
X0005100Y0078829D02*
X0006679Y0078829D01*
X0006400Y0080427D02*
X0005100Y0080427D01*
X0005100Y0082026D02*
X0006400Y0082026D01*
X0006400Y0083624D02*
X0005100Y0083624D01*
X0005100Y0085223D02*
X0006400Y0085223D01*
X0006400Y0086821D02*
X0005100Y0086821D01*
X0005100Y0088420D02*
X0006400Y0088420D01*
X0006400Y0090018D02*
X0005100Y0090018D01*
X0005100Y0091617D02*
X0006400Y0091617D01*
X0006400Y0093215D02*
X0005100Y0093215D01*
X0005100Y0094814D02*
X0006400Y0094814D01*
X0006400Y0096412D02*
X0005100Y0096412D01*
X0005100Y0098011D02*
X0006400Y0098011D01*
X0006400Y0099609D02*
X0005100Y0099609D01*
X0005100Y0101208D02*
X0006400Y0101208D01*
X0006400Y0102806D02*
X0005100Y0102806D01*
X0005100Y0104405D02*
X0006400Y0104405D01*
X0006400Y0106003D02*
X0005100Y0106003D01*
X0005100Y0107602D02*
X0006400Y0107602D01*
X0006400Y0109200D02*
X0005100Y0109200D01*
X0005100Y0110799D02*
X0006400Y0110799D01*
X0006400Y0112397D02*
X0005100Y0112397D01*
X0005100Y0113996D02*
X0006400Y0113996D01*
X0006400Y0115594D02*
X0005100Y0115594D01*
X0005100Y0117193D02*
X0006400Y0117193D01*
X0006400Y0118791D02*
X0005100Y0118791D01*
X0005100Y0120390D02*
X0006400Y0120390D01*
X0006400Y0121988D02*
X0005100Y0121988D01*
X0005100Y0123587D02*
X0006400Y0123587D01*
X0006400Y0125185D02*
X0005100Y0125185D01*
X0005100Y0126784D02*
X0006400Y0126784D01*
X0006400Y0128382D02*
X0005100Y0128382D01*
X0005100Y0129981D02*
X0006400Y0129981D01*
X0006400Y0131579D02*
X0005100Y0131579D01*
X0005100Y0133178D02*
X0006400Y0133178D01*
X0006400Y0134776D02*
X0005100Y0134776D01*
X0005100Y0136375D02*
X0006400Y0136375D01*
X0006400Y0137973D02*
X0005100Y0137973D01*
X0005100Y0139572D02*
X0006400Y0139572D01*
X0006400Y0141170D02*
X0005100Y0141170D01*
X0005100Y0142769D02*
X0006400Y0142769D01*
X0006400Y0144368D02*
X0005100Y0144368D01*
X0005100Y0145966D02*
X0006400Y0145966D01*
X0006400Y0147565D02*
X0005100Y0147565D01*
X0005100Y0149163D02*
X0006400Y0149163D01*
X0006400Y0150762D02*
X0005100Y0150762D01*
X0005100Y0152360D02*
X0006400Y0152360D01*
X0006400Y0153959D02*
X0005100Y0153959D01*
X0005100Y0155557D02*
X0006400Y0155557D01*
X0006400Y0157156D02*
X0005100Y0157156D01*
X0005100Y0158754D02*
X0006400Y0158754D01*
X0006400Y0160353D02*
X0005100Y0160353D01*
X0005100Y0161951D02*
X0006400Y0161951D01*
X0006400Y0163550D02*
X0005100Y0163550D01*
X0005100Y0165148D02*
X0006400Y0165148D01*
X0006400Y0166747D02*
X0005100Y0166747D01*
X0005100Y0168345D02*
X0006400Y0168345D01*
X0006400Y0169944D02*
X0005100Y0169944D01*
X0005100Y0171542D02*
X0006400Y0171542D01*
X0006400Y0173141D02*
X0005100Y0173141D01*
X0005100Y0174739D02*
X0006400Y0174739D01*
X0006400Y0176338D02*
X0005100Y0176338D01*
X0005100Y0177936D02*
X0006400Y0177936D01*
X0006400Y0179535D02*
X0005100Y0179535D01*
X0005100Y0181133D02*
X0006400Y0181133D01*
X0006400Y0182732D02*
X0005100Y0182732D01*
X0005100Y0184330D02*
X0006400Y0184330D01*
X0006400Y0185929D02*
X0005100Y0185929D01*
X0005100Y0187527D02*
X0006400Y0187527D01*
X0006400Y0189126D02*
X0005100Y0189126D01*
X0005100Y0190724D02*
X0006400Y0190724D01*
X0006400Y0192323D02*
X0005100Y0192323D01*
X0005100Y0193921D02*
X0006400Y0193921D01*
X0006400Y0195520D02*
X0005100Y0195520D01*
X0005100Y0197118D02*
X0006400Y0197118D01*
X0006400Y0198717D02*
X0005100Y0198717D01*
X0005100Y0200315D02*
X0006400Y0200315D01*
X0006400Y0201914D02*
X0005100Y0201914D01*
X0005100Y0203512D02*
X0006400Y0203512D01*
X0006400Y0205111D02*
X0005100Y0205111D01*
X0005100Y0206709D02*
X0006400Y0206709D01*
X0006400Y0208308D02*
X0005100Y0208308D01*
X0005100Y0209906D02*
X0006400Y0209906D01*
X0006400Y0211505D02*
X0005100Y0211505D01*
X0005100Y0213103D02*
X0007161Y0213103D01*
X0008759Y0214702D02*
X0005100Y0214702D01*
X0005100Y0216301D02*
X0010358Y0216301D01*
X0011956Y0217899D02*
X0005100Y0217899D01*
X0005100Y0219498D02*
X0013555Y0219498D01*
X0015153Y0221096D02*
X0009460Y0221096D01*
X0010694Y0222695D02*
X0016824Y0222695D01*
X0019643Y0217100D02*
X0081400Y0217100D01*
X0081400Y0167884D01*
X0081309Y0167847D01*
X0080634Y0167172D01*
X0080269Y0166290D01*
X0080269Y0163169D01*
X0080200Y0163003D01*
X0080200Y0161843D01*
X0079757Y0161400D01*
X0077403Y0161400D01*
X0076301Y0160943D01*
X0075457Y0160099D01*
X0075321Y0159964D01*
X0075321Y0205775D01*
X0074865Y0206878D01*
X0074800Y0206943D01*
X0074800Y0211751D01*
X0071051Y0215500D01*
X0065749Y0215500D01*
X0062000Y0211751D01*
X0062000Y0206449D01*
X0065749Y0202700D01*
X0069321Y0202700D01*
X0069321Y0170221D01*
X0057400Y0182143D01*
X0057400Y0202829D01*
X0061020Y0206449D01*
X0061020Y0211751D01*
X0057271Y0215500D01*
X0051970Y0215500D01*
X0048220Y0211751D01*
X0048220Y0206449D01*
X0051400Y0203270D01*
X0051400Y0183143D01*
X0043500Y0191043D01*
X0043500Y0194515D01*
X0043504Y0194525D01*
X0043500Y0195111D01*
X0043500Y0195697D01*
X0043496Y0195707D01*
X0043444Y0202700D01*
X0043492Y0202700D01*
X0047241Y0206449D01*
X0047241Y0211751D01*
X0043492Y0215500D01*
X0038190Y0215500D01*
X0034441Y0211751D01*
X0034441Y0206449D01*
X0037438Y0203452D01*
X0037500Y0195088D01*
X0037500Y0192543D01*
X0029800Y0200243D01*
X0029800Y0202788D01*
X0033461Y0206449D01*
X0033461Y0211751D01*
X0029712Y0215500D01*
X0024410Y0215500D01*
X0020661Y0211751D01*
X0020661Y0206449D01*
X0023800Y0203310D01*
X0023800Y0198403D01*
X0024257Y0197301D01*
X0025101Y0196457D01*
X0043457Y0178100D01*
X0025274Y0178100D01*
X0025216Y0178241D01*
X0024541Y0178916D01*
X0023658Y0179281D01*
X0019141Y0179281D01*
X0018259Y0178916D01*
X0017584Y0178241D01*
X0017219Y0177358D01*
X0017219Y0172841D01*
X0017584Y0171959D01*
X0018259Y0171284D01*
X0018704Y0171100D01*
X0012400Y0171100D01*
X0012400Y0209857D01*
X0019643Y0217100D01*
X0018843Y0216301D02*
X0081400Y0216301D01*
X0081400Y0214702D02*
X0071849Y0214702D01*
X0073447Y0213103D02*
X0081400Y0213103D01*
X0081400Y0211505D02*
X0074800Y0211505D01*
X0074800Y0209906D02*
X0081400Y0209906D01*
X0081400Y0208308D02*
X0074800Y0208308D01*
X0074934Y0206709D02*
X0081400Y0206709D01*
X0081400Y0205111D02*
X0075321Y0205111D01*
X0075321Y0203512D02*
X0081400Y0203512D01*
X0081400Y0201914D02*
X0075321Y0201914D01*
X0075321Y0200315D02*
X0081400Y0200315D01*
X0081400Y0198717D02*
X0075321Y0198717D01*
X0075321Y0197118D02*
X0081400Y0197118D01*
X0081400Y0195520D02*
X0075321Y0195520D01*
X0075321Y0193921D02*
X0081400Y0193921D01*
X0081400Y0192323D02*
X0075321Y0192323D01*
X0075321Y0190724D02*
X0081400Y0190724D01*
X0081400Y0189126D02*
X0075321Y0189126D01*
X0075321Y0187527D02*
X0081400Y0187527D01*
X0081400Y0185929D02*
X0075321Y0185929D01*
X0075321Y0184330D02*
X0081400Y0184330D01*
X0081400Y0182732D02*
X0075321Y0182732D01*
X0075321Y0181133D02*
X0081400Y0181133D01*
X0081400Y0179535D02*
X0075321Y0179535D01*
X0075321Y0177936D02*
X0081400Y0177936D01*
X0081400Y0176338D02*
X0075321Y0176338D01*
X0075321Y0174739D02*
X0081400Y0174739D01*
X0081400Y0173141D02*
X0075321Y0173141D01*
X0075321Y0171542D02*
X0081400Y0171542D01*
X0081400Y0169944D02*
X0075321Y0169944D01*
X0075321Y0168345D02*
X0081400Y0168345D01*
X0080458Y0166747D02*
X0075321Y0166747D01*
X0075321Y0165148D02*
X0080269Y0165148D01*
X0080269Y0163550D02*
X0075321Y0163550D01*
X0075321Y0161951D02*
X0080200Y0161951D01*
X0084386Y0157543D02*
X0084899Y0158057D01*
X0085530Y0158688D01*
X0086295Y0158688D01*
X0087178Y0159053D01*
X0087853Y0159728D01*
X0088218Y0160610D01*
X0088218Y0166290D01*
X0087853Y0167172D01*
X0087400Y0167624D01*
X0087400Y0217100D01*
X0116500Y0217100D01*
X0116500Y0214492D01*
X0115492Y0215500D01*
X0110190Y0215500D01*
X0106441Y0211751D01*
X0106441Y0206449D01*
X0110190Y0202700D01*
X0114998Y0202700D01*
X0125761Y0191937D01*
X0125756Y0191781D01*
X0125672Y0191747D01*
X0124997Y0191072D01*
X0124632Y0190190D01*
X0124632Y0184510D01*
X0124997Y0183628D01*
X0125607Y0183019D01*
X0125607Y0181681D01*
X0124997Y0181072D01*
X0124632Y0180190D01*
X0124632Y0174510D01*
X0124997Y0173628D01*
X0125672Y0172953D01*
X0126554Y0172588D01*
X0130659Y0172588D01*
X0131541Y0172953D01*
X0132150Y0173562D01*
X0132759Y0172953D01*
X0133641Y0172588D01*
X0136145Y0172588D01*
X0136852Y0171862D01*
X0133891Y0171862D01*
X0133009Y0171497D01*
X0132334Y0170822D01*
X0131969Y0169940D01*
X0131969Y0164260D01*
X0132334Y0163378D01*
X0133009Y0162703D01*
X0133891Y0162338D01*
X0137620Y0162338D01*
X0137620Y0161862D01*
X0133891Y0161862D01*
X0133009Y0161497D01*
X0132400Y0160888D01*
X0131791Y0161497D01*
X0130909Y0161862D01*
X0126804Y0161862D01*
X0125922Y0161497D01*
X0125247Y0160822D01*
X0124882Y0159940D01*
X0124882Y0154260D01*
X0125247Y0153378D01*
X0125922Y0152703D01*
X0126804Y0152338D01*
X0126920Y0152338D01*
X0127790Y0151467D01*
X0127562Y0151239D01*
X0127197Y0150357D01*
X0127197Y0149213D01*
X0124140Y0149148D01*
X0123622Y0149666D01*
X0122740Y0150031D01*
X0117060Y0150031D01*
X0116178Y0149666D01*
X0115578Y0149066D01*
X0115216Y0149941D01*
X0114541Y0150616D01*
X0113658Y0150981D01*
X0109141Y0150981D01*
X0108259Y0150616D01*
X0107584Y0149941D01*
X0107219Y0149058D01*
X0107219Y0145857D01*
X0106381Y0145857D01*
X0105772Y0146466D01*
X0104890Y0146831D01*
X0099210Y0146831D01*
X0098328Y0146466D01*
X0097653Y0145791D01*
X0097288Y0144909D01*
X0097288Y0144398D01*
X0097116Y0144814D01*
X0096441Y0145489D01*
X0095558Y0145854D01*
X0086879Y0145854D01*
X0085997Y0145489D01*
X0085322Y0144814D01*
X0084957Y0143932D01*
X0084957Y0141796D01*
X0085322Y0140914D01*
X0085341Y0140895D01*
X0085322Y0140877D01*
X0084957Y0139995D01*
X0084957Y0116205D01*
X0085322Y0115323D01*
X0085341Y0115305D01*
X0085322Y0115286D01*
X0084957Y0114404D01*
X0084957Y0114100D01*
X0076803Y0114100D01*
X0075701Y0113643D01*
X0074857Y0112799D01*
X0073715Y0111658D01*
X0073258Y0110555D01*
X0073258Y0110543D01*
X0055505Y0110543D01*
X0054623Y0110178D01*
X0054605Y0110159D01*
X0054586Y0110178D01*
X0053704Y0110543D01*
X0051568Y0110543D01*
X0050686Y0110178D01*
X0050011Y0109503D01*
X0049646Y0108621D01*
X0049646Y0107099D01*
X0048982Y0106824D01*
X0045701Y0103543D01*
X0044857Y0102699D01*
X0044400Y0101597D01*
X0044400Y0101302D01*
X0043678Y0101003D01*
X0043003Y0100328D01*
X0042638Y0099445D01*
X0042638Y0097580D01*
X0042400Y0097343D01*
X0042400Y0110336D01*
X0044178Y0110336D01*
X0044201Y0110346D01*
X0047921Y0110346D01*
X0048803Y0110711D01*
X0049478Y0111386D01*
X0049843Y0112268D01*
X0049843Y0139995D01*
X0049478Y0140877D01*
X0049459Y0140895D01*
X0049478Y0140914D01*
X0049843Y0141796D01*
X0049843Y0143932D01*
X0049478Y0144814D01*
X0048803Y0145489D01*
X0047921Y0145854D01*
X0046581Y0145854D01*
X0046581Y0150838D01*
X0048745Y0150838D01*
X0049628Y0151203D01*
X0049646Y0151221D01*
X0049646Y0147579D01*
X0050011Y0146697D01*
X0050686Y0146022D01*
X0051568Y0145657D01*
X0073389Y0145657D01*
X0074271Y0146022D01*
X0074290Y0146041D01*
X0074308Y0146022D01*
X0075190Y0145657D01*
X0083232Y0145657D01*
X0084114Y0146022D01*
X0084789Y0146697D01*
X0085154Y0147579D01*
X0085154Y0148938D01*
X0085835Y0148938D01*
X0086937Y0149395D01*
X0087781Y0150238D01*
X0101943Y0164401D01*
X0102400Y0165503D01*
X0102400Y0203388D01*
X0105461Y0206449D01*
X0105461Y0211751D01*
X0101712Y0215500D01*
X0096410Y0215500D01*
X0092661Y0211751D01*
X0092661Y0206449D01*
X0096400Y0202710D01*
X0096400Y0167343D01*
X0085154Y0156097D01*
X0085154Y0156258D01*
X0084789Y0157141D01*
X0084386Y0157543D01*
X0084774Y0157156D02*
X0086213Y0157156D01*
X0086456Y0158754D02*
X0087811Y0158754D01*
X0088111Y0160353D02*
X0089410Y0160353D01*
X0088218Y0161951D02*
X0091009Y0161951D01*
X0092607Y0163550D02*
X0088218Y0163550D01*
X0088218Y0165148D02*
X0094206Y0165148D01*
X0095804Y0166747D02*
X0088029Y0166747D01*
X0087400Y0168345D02*
X0096400Y0168345D01*
X0096400Y0169944D02*
X0087400Y0169944D01*
X0087400Y0171542D02*
X0096400Y0171542D01*
X0096400Y0173141D02*
X0087400Y0173141D01*
X0087400Y0174739D02*
X0096400Y0174739D01*
X0096400Y0176338D02*
X0087400Y0176338D01*
X0087400Y0177936D02*
X0096400Y0177936D01*
X0096400Y0179535D02*
X0087400Y0179535D01*
X0087400Y0181133D02*
X0096400Y0181133D01*
X0096400Y0182732D02*
X0087400Y0182732D01*
X0087400Y0184330D02*
X0096400Y0184330D01*
X0096400Y0185929D02*
X0087400Y0185929D01*
X0087400Y0187527D02*
X0096400Y0187527D01*
X0096400Y0189126D02*
X0087400Y0189126D01*
X0087400Y0190724D02*
X0096400Y0190724D01*
X0096400Y0192323D02*
X0087400Y0192323D01*
X0087400Y0193921D02*
X0096400Y0193921D01*
X0096400Y0195520D02*
X0087400Y0195520D01*
X0087400Y0197118D02*
X0096400Y0197118D01*
X0096400Y0198717D02*
X0087400Y0198717D01*
X0087400Y0200315D02*
X0096400Y0200315D01*
X0096400Y0201914D02*
X0087400Y0201914D01*
X0087400Y0203512D02*
X0095598Y0203512D01*
X0094000Y0205111D02*
X0087400Y0205111D01*
X0087400Y0206709D02*
X0092661Y0206709D01*
X0092661Y0208308D02*
X0087400Y0208308D01*
X0087400Y0209906D02*
X0092661Y0209906D01*
X0092661Y0211505D02*
X0087400Y0211505D01*
X0087400Y0213103D02*
X0094014Y0213103D01*
X0095612Y0214702D02*
X0087400Y0214702D01*
X0087400Y0216301D02*
X0116500Y0216301D01*
X0116500Y0214702D02*
X0116290Y0214702D01*
X0109392Y0214702D02*
X0102510Y0214702D01*
X0104109Y0213103D02*
X0107793Y0213103D01*
X0106441Y0211505D02*
X0105461Y0211505D01*
X0105461Y0209906D02*
X0106441Y0209906D01*
X0106441Y0208308D02*
X0105461Y0208308D01*
X0105461Y0206709D02*
X0106441Y0206709D01*
X0107779Y0205111D02*
X0104123Y0205111D01*
X0102525Y0203512D02*
X0109378Y0203512D01*
X0115784Y0201914D02*
X0102400Y0201914D01*
X0102400Y0200315D02*
X0117383Y0200315D01*
X0118981Y0198717D02*
X0102400Y0198717D01*
X0102400Y0197118D02*
X0120580Y0197118D01*
X0122178Y0195520D02*
X0102400Y0195520D01*
X0102400Y0193921D02*
X0123777Y0193921D01*
X0122935Y0192859D02*
X0122259Y0193535D01*
X0121377Y0193900D01*
X0105623Y0193900D01*
X0104423Y0193900D01*
X0103541Y0193535D01*
X0102865Y0192859D01*
X0102500Y0191977D01*
X0102500Y0167273D01*
X0102865Y0166391D01*
X0103541Y0165715D01*
X0104423Y0165350D01*
X0106627Y0165350D01*
X0106748Y0165400D01*
X0119052Y0165400D01*
X0119173Y0165350D01*
X0121377Y0165350D01*
X0122259Y0165715D01*
X0122935Y0166391D01*
X0123300Y0167273D01*
X0123300Y0191977D01*
X0122935Y0192859D01*
X0123157Y0192323D02*
X0125375Y0192323D01*
X0124853Y0190724D02*
X0123300Y0190724D01*
X0123300Y0189126D02*
X0124632Y0189126D01*
X0124632Y0187527D02*
X0123300Y0187527D01*
X0123300Y0185929D02*
X0124632Y0185929D01*
X0124706Y0184330D02*
X0123300Y0184330D01*
X0123300Y0182732D02*
X0125607Y0182732D01*
X0125059Y0181133D02*
X0123300Y0181133D01*
X0123300Y0179535D02*
X0124632Y0179535D01*
X0124632Y0177936D02*
X0123300Y0177936D01*
X0123300Y0176338D02*
X0124632Y0176338D01*
X0124632Y0174739D02*
X0123300Y0174739D01*
X0123300Y0173141D02*
X0125485Y0173141D01*
X0123300Y0171542D02*
X0133119Y0171542D01*
X0132571Y0173141D02*
X0131729Y0173141D01*
X0131970Y0169944D02*
X0123300Y0169944D01*
X0123300Y0168345D02*
X0131969Y0168345D01*
X0131969Y0166747D02*
X0123082Y0166747D01*
X0125053Y0160353D02*
X0097895Y0160353D01*
X0099494Y0161951D02*
X0137620Y0161951D01*
X0132263Y0163550D02*
X0101092Y0163550D01*
X0102253Y0165148D02*
X0131969Y0165148D01*
X0124882Y0158754D02*
X0096297Y0158754D01*
X0094698Y0157156D02*
X0124882Y0157156D01*
X0124882Y0155557D02*
X0093100Y0155557D01*
X0091501Y0153959D02*
X0125007Y0153959D01*
X0126751Y0152360D02*
X0089903Y0152360D01*
X0088304Y0150762D02*
X0108611Y0150762D01*
X0107262Y0149163D02*
X0086378Y0149163D01*
X0085148Y0147565D02*
X0107219Y0147565D01*
X0107219Y0145966D02*
X0106272Y0145966D01*
X0114189Y0150762D02*
X0127364Y0150762D01*
X0124850Y0149163D02*
X0124125Y0149163D01*
X0115675Y0149163D02*
X0115538Y0149163D01*
X0102718Y0166747D02*
X0102400Y0166747D01*
X0102400Y0168345D02*
X0102500Y0168345D01*
X0102500Y0169944D02*
X0102400Y0169944D01*
X0102400Y0171542D02*
X0102500Y0171542D01*
X0102500Y0173141D02*
X0102400Y0173141D01*
X0102400Y0174739D02*
X0102500Y0174739D01*
X0102500Y0176338D02*
X0102400Y0176338D01*
X0102400Y0177936D02*
X0102500Y0177936D01*
X0102500Y0179535D02*
X0102400Y0179535D01*
X0102400Y0181133D02*
X0102500Y0181133D01*
X0102500Y0182732D02*
X0102400Y0182732D01*
X0102400Y0184330D02*
X0102500Y0184330D01*
X0102500Y0185929D02*
X0102400Y0185929D01*
X0102400Y0187527D02*
X0102500Y0187527D01*
X0102500Y0189126D02*
X0102400Y0189126D01*
X0102400Y0190724D02*
X0102500Y0190724D01*
X0102400Y0192323D02*
X0102643Y0192323D01*
X0122300Y0208281D02*
X0122300Y0217100D01*
X0152157Y0217100D01*
X0167402Y0201855D01*
X0167495Y0143400D01*
X0155842Y0143400D01*
X0156238Y0143796D01*
X0156603Y0144678D01*
X0156603Y0150357D01*
X0156238Y0151239D01*
X0155563Y0151914D01*
X0154681Y0152280D01*
X0153367Y0152280D01*
X0153466Y0152378D01*
X0153831Y0153260D01*
X0153831Y0158940D01*
X0153466Y0159822D01*
X0152857Y0160431D01*
X0152857Y0161769D01*
X0153466Y0162378D01*
X0153831Y0163260D01*
X0153831Y0168940D01*
X0153714Y0169223D01*
X0155304Y0170725D01*
X0155343Y0170741D01*
X0155722Y0171121D01*
X0156111Y0171489D01*
X0156129Y0171527D01*
X0156158Y0171557D01*
X0156364Y0172052D01*
X0156379Y0172088D01*
X0159245Y0172088D01*
X0160128Y0172453D01*
X0160803Y0173128D01*
X0161168Y0174010D01*
X0161168Y0179690D01*
X0160803Y0180572D01*
X0160128Y0181247D01*
X0160107Y0181255D01*
X0160078Y0182726D01*
X0160628Y0182953D01*
X0161303Y0183628D01*
X0161668Y0184510D01*
X0161668Y0190190D01*
X0161303Y0191072D01*
X0160628Y0191747D01*
X0160400Y0191841D01*
X0160400Y0195697D01*
X0159943Y0196799D01*
X0159099Y0197643D01*
X0146800Y0209943D01*
X0146800Y0211751D01*
X0143051Y0215500D01*
X0137749Y0215500D01*
X0134000Y0211751D01*
X0134000Y0206449D01*
X0137749Y0202700D01*
X0143051Y0202700D01*
X0144304Y0203953D01*
X0154400Y0193857D01*
X0154400Y0191388D01*
X0154084Y0191072D01*
X0153719Y0190190D01*
X0153719Y0184714D01*
X0153576Y0184813D01*
X0153268Y0184879D01*
X0152977Y0185000D01*
X0152710Y0185000D01*
X0152449Y0185056D01*
X0152138Y0185000D01*
X0135000Y0185000D01*
X0135000Y0194083D01*
X0135007Y0194643D01*
X0135000Y0194659D01*
X0135000Y0194677D01*
X0134786Y0195194D01*
X0134577Y0195714D01*
X0134565Y0195726D01*
X0134558Y0195743D01*
X0134162Y0196139D01*
X0122300Y0208281D01*
X0122300Y0208308D02*
X0134000Y0208308D01*
X0134000Y0209906D02*
X0122300Y0209906D01*
X0122300Y0211505D02*
X0134000Y0211505D01*
X0135353Y0213103D02*
X0122300Y0213103D01*
X0122300Y0214702D02*
X0136951Y0214702D01*
X0143849Y0214702D02*
X0154555Y0214702D01*
X0152957Y0216301D02*
X0122300Y0216301D01*
X0123836Y0206709D02*
X0134000Y0206709D01*
X0135338Y0205111D02*
X0125397Y0205111D01*
X0126959Y0203512D02*
X0136937Y0203512D01*
X0143863Y0203512D02*
X0144745Y0203512D01*
X0146343Y0201914D02*
X0128521Y0201914D01*
X0130082Y0200315D02*
X0147942Y0200315D01*
X0149540Y0198717D02*
X0131644Y0198717D01*
X0133205Y0197118D02*
X0151139Y0197118D01*
X0152737Y0195520D02*
X0134655Y0195520D01*
X0135000Y0193921D02*
X0154336Y0193921D01*
X0154400Y0192323D02*
X0135000Y0192323D01*
X0135000Y0190724D02*
X0153940Y0190724D01*
X0153719Y0189126D02*
X0135000Y0189126D01*
X0135000Y0187527D02*
X0153719Y0187527D01*
X0153719Y0185929D02*
X0135000Y0185929D01*
X0151632Y0205111D02*
X0164146Y0205111D01*
X0162548Y0206709D02*
X0150033Y0206709D01*
X0148435Y0208308D02*
X0160949Y0208308D01*
X0159351Y0209906D02*
X0146836Y0209906D01*
X0146800Y0211505D02*
X0157752Y0211505D01*
X0156154Y0213103D02*
X0145447Y0213103D01*
X0153230Y0203512D02*
X0165745Y0203512D01*
X0167343Y0201914D02*
X0154829Y0201914D01*
X0156427Y0200315D02*
X0167404Y0200315D01*
X0167407Y0198717D02*
X0158026Y0198717D01*
X0159624Y0197118D02*
X0167410Y0197118D01*
X0167412Y0195520D02*
X0160400Y0195520D01*
X0160400Y0193921D02*
X0167415Y0193921D01*
X0167417Y0192323D02*
X0160400Y0192323D01*
X0161447Y0190724D02*
X0167420Y0190724D01*
X0167422Y0189126D02*
X0161668Y0189126D01*
X0161668Y0187527D02*
X0167425Y0187527D01*
X0167427Y0185929D02*
X0161668Y0185929D01*
X0161593Y0184330D02*
X0167430Y0184330D01*
X0167432Y0182732D02*
X0160093Y0182732D01*
X0160241Y0181133D02*
X0167435Y0181133D01*
X0167438Y0179535D02*
X0161168Y0179535D01*
X0161168Y0177936D02*
X0167440Y0177936D01*
X0167443Y0176338D02*
X0161168Y0176338D01*
X0161168Y0174739D02*
X0167445Y0174739D01*
X0167448Y0173141D02*
X0160808Y0173141D01*
X0156143Y0171542D02*
X0167450Y0171542D01*
X0167453Y0169944D02*
X0154477Y0169944D01*
X0153831Y0168345D02*
X0167455Y0168345D01*
X0167458Y0166747D02*
X0153831Y0166747D01*
X0153831Y0165148D02*
X0167461Y0165148D01*
X0167463Y0163550D02*
X0153831Y0163550D01*
X0153039Y0161951D02*
X0167466Y0161951D01*
X0167468Y0160353D02*
X0152935Y0160353D01*
X0153831Y0158754D02*
X0167471Y0158754D01*
X0167473Y0157156D02*
X0153831Y0157156D01*
X0153831Y0155557D02*
X0167476Y0155557D01*
X0167478Y0153959D02*
X0153831Y0153959D01*
X0153448Y0152360D02*
X0167481Y0152360D01*
X0167483Y0150762D02*
X0156436Y0150762D01*
X0156603Y0149163D02*
X0167486Y0149163D01*
X0167489Y0147565D02*
X0156603Y0147565D01*
X0156603Y0145966D02*
X0167491Y0145966D01*
X0167494Y0144368D02*
X0156475Y0144368D01*
X0167468Y0119280D02*
X0167404Y0076744D01*
X0163438Y0076744D01*
X0163438Y0079930D01*
X0163072Y0080812D01*
X0162397Y0081487D01*
X0161515Y0081852D01*
X0153671Y0081852D01*
X0152789Y0081487D01*
X0152113Y0080812D01*
X0151819Y0080100D01*
X0102343Y0080100D01*
X0084075Y0098368D01*
X0084114Y0098384D01*
X0084789Y0099059D01*
X0085154Y0099941D01*
X0085154Y0106103D01*
X0105857Y0085401D01*
X0106701Y0084557D01*
X0107803Y0084100D01*
X0152071Y0084100D01*
X0152113Y0083998D01*
X0152789Y0083323D01*
X0153671Y0082958D01*
X0161515Y0082958D01*
X0162397Y0083323D01*
X0163072Y0083998D01*
X0163438Y0084880D01*
X0163438Y0088591D01*
X0163309Y0088901D01*
X0163438Y0089211D01*
X0163438Y0092922D01*
X0163072Y0093804D01*
X0162434Y0094443D01*
X0162434Y0099142D01*
X0162068Y0100024D01*
X0161393Y0100700D01*
X0160511Y0101065D01*
X0153651Y0101065D01*
X0152769Y0100700D01*
X0152094Y0100024D01*
X0151728Y0099142D01*
X0151728Y0093069D01*
X0151769Y0092972D01*
X0151748Y0092922D01*
X0151748Y0090100D01*
X0124253Y0090100D01*
X0124864Y0090711D01*
X0125229Y0091593D01*
X0125229Y0092446D01*
X0130118Y0092446D01*
X0131000Y0092811D01*
X0131675Y0093487D01*
X0132040Y0094369D01*
X0132040Y0098473D01*
X0131675Y0099355D01*
X0131000Y0100030D01*
X0130118Y0100396D01*
X0123734Y0100396D01*
X0123307Y0100573D01*
X0118415Y0100573D01*
X0117533Y0100207D01*
X0116858Y0099532D01*
X0116492Y0098650D01*
X0116492Y0091593D01*
X0116858Y0090711D01*
X0117469Y0090100D01*
X0109643Y0090100D01*
X0101843Y0097900D01*
X0112797Y0097900D01*
X0113899Y0098357D01*
X0116462Y0100919D01*
X0118658Y0100919D01*
X0119541Y0101284D01*
X0120216Y0101959D01*
X0120581Y0102841D01*
X0120581Y0105038D01*
X0125443Y0109901D01*
X0125900Y0111003D01*
X0125900Y0111148D01*
X0126622Y0111447D01*
X0127297Y0112122D01*
X0127346Y0112242D01*
X0127617Y0112254D01*
X0128150Y0112254D01*
X0128211Y0112279D01*
X0128277Y0112281D01*
X0128760Y0112506D01*
X0129253Y0112710D01*
X0129299Y0112757D01*
X0129359Y0112784D01*
X0129720Y0113177D01*
X0132099Y0115557D01*
X0132884Y0116341D01*
X0132904Y0116287D01*
X0132939Y0116250D01*
X0132959Y0116202D01*
X0133346Y0115815D01*
X0134382Y0114708D01*
X0134382Y0112010D01*
X0134747Y0111128D01*
X0135422Y0110453D01*
X0136304Y0110088D01*
X0140409Y0110088D01*
X0141291Y0110453D01*
X0141966Y0111128D01*
X0142331Y0112010D01*
X0142331Y0117690D01*
X0141966Y0118572D01*
X0141291Y0119247D01*
X0140409Y0119612D01*
X0138502Y0119612D01*
X0138502Y0119920D01*
X0139326Y0119920D01*
X0140208Y0120286D01*
X0140609Y0120687D01*
X0140636Y0120621D01*
X0143857Y0117401D01*
X0144701Y0116557D01*
X0145803Y0116100D01*
X0159913Y0116100D01*
X0160017Y0116065D01*
X0160506Y0116100D01*
X0160997Y0116100D01*
X0161098Y0116142D01*
X0161208Y0116150D01*
X0161646Y0116369D01*
X0162099Y0116557D01*
X0162177Y0116634D01*
X0167468Y0119280D01*
X0167467Y0118791D02*
X0166491Y0118791D01*
X0167465Y0117193D02*
X0163294Y0117193D01*
X0167463Y0115594D02*
X0142331Y0115594D01*
X0142331Y0113996D02*
X0167460Y0113996D01*
X0167458Y0112397D02*
X0142331Y0112397D01*
X0141637Y0110799D02*
X0167455Y0110799D01*
X0167453Y0109200D02*
X0124743Y0109200D01*
X0125815Y0110799D02*
X0135077Y0110799D01*
X0134382Y0112397D02*
X0128526Y0112397D01*
X0130538Y0113996D02*
X0134382Y0113996D01*
X0133552Y0115594D02*
X0132137Y0115594D01*
X0127400Y0119343D02*
X0127400Y0121353D01*
X0127197Y0121843D01*
X0127197Y0127522D01*
X0127312Y0127800D01*
X0105356Y0127800D01*
X0105716Y0127441D01*
X0106081Y0126558D01*
X0106081Y0126295D01*
X0106604Y0126512D01*
X0110709Y0126512D01*
X0111591Y0126147D01*
X0112266Y0125472D01*
X0112631Y0124590D01*
X0112631Y0118910D01*
X0112266Y0118028D01*
X0111591Y0117353D01*
X0110709Y0116988D01*
X0108137Y0116988D01*
X0105879Y0114730D01*
X0104777Y0114273D01*
X0097481Y0114273D01*
X0097481Y0112268D01*
X0097396Y0112062D01*
X0099609Y0112062D01*
X0100491Y0111697D01*
X0101166Y0111022D01*
X0101531Y0110140D01*
X0101531Y0105911D01*
X0103543Y0103900D01*
X0110957Y0103900D01*
X0112219Y0105162D01*
X0112219Y0107358D01*
X0112584Y0108241D01*
X0113259Y0108916D01*
X0114141Y0109281D01*
X0116338Y0109281D01*
X0118841Y0111784D01*
X0118503Y0112122D01*
X0118138Y0113004D01*
X0118138Y0117109D01*
X0118503Y0117991D01*
X0119178Y0118666D01*
X0120060Y0119031D01*
X0125740Y0119031D01*
X0126622Y0118666D01*
X0126673Y0118615D01*
X0127400Y0119343D01*
X0126849Y0118791D02*
X0126319Y0118791D01*
X0127400Y0120390D02*
X0112631Y0120390D01*
X0112631Y0121988D02*
X0127197Y0121988D01*
X0127197Y0123587D02*
X0112631Y0123587D01*
X0112385Y0125185D02*
X0127197Y0125185D01*
X0127197Y0126784D02*
X0105988Y0126784D01*
X0112582Y0118791D02*
X0119481Y0118791D01*
X0118173Y0117193D02*
X0111204Y0117193D01*
X0106744Y0115594D02*
X0118138Y0115594D01*
X0118138Y0113996D02*
X0097481Y0113996D01*
X0097481Y0112397D02*
X0118389Y0112397D01*
X0117856Y0110799D02*
X0101258Y0110799D01*
X0101531Y0109200D02*
X0113946Y0109200D01*
X0112320Y0107602D02*
X0101531Y0107602D01*
X0101531Y0106003D02*
X0112219Y0106003D01*
X0111462Y0104405D02*
X0103038Y0104405D01*
X0103330Y0096412D02*
X0116492Y0096412D01*
X0116492Y0094814D02*
X0104929Y0094814D01*
X0106527Y0093215D02*
X0116492Y0093215D01*
X0116492Y0091617D02*
X0108126Y0091617D01*
X0104436Y0086821D02*
X0095622Y0086821D01*
X0097220Y0085223D02*
X0106035Y0085223D01*
X0102838Y0088420D02*
X0094023Y0088420D01*
X0092425Y0090018D02*
X0101239Y0090018D01*
X0099641Y0091617D02*
X0090826Y0091617D01*
X0089227Y0093215D02*
X0098042Y0093215D01*
X0096444Y0094814D02*
X0087629Y0094814D01*
X0086030Y0096412D02*
X0094845Y0096412D01*
X0093247Y0098011D02*
X0084432Y0098011D01*
X0085017Y0099609D02*
X0091648Y0099609D01*
X0090050Y0101208D02*
X0085154Y0101208D01*
X0085154Y0102806D02*
X0088451Y0102806D01*
X0086853Y0104405D02*
X0085154Y0104405D01*
X0085154Y0106003D02*
X0085254Y0106003D01*
X0085210Y0115594D02*
X0049843Y0115594D01*
X0049843Y0113996D02*
X0076552Y0113996D01*
X0074857Y0112799D02*
X0074857Y0112799D01*
X0074455Y0112397D02*
X0049843Y0112397D01*
X0048891Y0110799D02*
X0073359Y0110799D01*
X0084957Y0117193D02*
X0049843Y0117193D01*
X0049843Y0118791D02*
X0084957Y0118791D01*
X0084957Y0120390D02*
X0049843Y0120390D01*
X0049843Y0121988D02*
X0084957Y0121988D01*
X0084957Y0123587D02*
X0049843Y0123587D01*
X0049843Y0125185D02*
X0084957Y0125185D01*
X0084957Y0126784D02*
X0049843Y0126784D01*
X0049843Y0128382D02*
X0084957Y0128382D01*
X0084957Y0129981D02*
X0049843Y0129981D01*
X0049843Y0131579D02*
X0084957Y0131579D01*
X0084957Y0133178D02*
X0049843Y0133178D01*
X0049843Y0134776D02*
X0084957Y0134776D01*
X0084957Y0136375D02*
X0049843Y0136375D01*
X0049843Y0137973D02*
X0084957Y0137973D01*
X0084957Y0139572D02*
X0049843Y0139572D01*
X0049584Y0141170D02*
X0085216Y0141170D01*
X0084957Y0142769D02*
X0049843Y0142769D01*
X0049663Y0144368D02*
X0085137Y0144368D01*
X0083978Y0145966D02*
X0097828Y0145966D01*
X0074444Y0145966D02*
X0074136Y0145966D01*
X0075321Y0160353D02*
X0075710Y0160353D01*
X0069321Y0171542D02*
X0068000Y0171542D01*
X0069321Y0173141D02*
X0066402Y0173141D01*
X0064803Y0174739D02*
X0069321Y0174739D01*
X0069321Y0176338D02*
X0063205Y0176338D01*
X0061606Y0177936D02*
X0069321Y0177936D01*
X0069321Y0179535D02*
X0060008Y0179535D01*
X0058409Y0181133D02*
X0069321Y0181133D01*
X0069321Y0182732D02*
X0057400Y0182732D01*
X0057400Y0184330D02*
X0069321Y0184330D01*
X0069321Y0185929D02*
X0057400Y0185929D01*
X0057400Y0187527D02*
X0069321Y0187527D01*
X0069321Y0189126D02*
X0057400Y0189126D01*
X0057400Y0190724D02*
X0069321Y0190724D01*
X0069321Y0192323D02*
X0057400Y0192323D01*
X0057400Y0193921D02*
X0069321Y0193921D01*
X0069321Y0195520D02*
X0057400Y0195520D01*
X0057400Y0197118D02*
X0069321Y0197118D01*
X0069321Y0198717D02*
X0057400Y0198717D01*
X0057400Y0200315D02*
X0069321Y0200315D01*
X0069321Y0201914D02*
X0057400Y0201914D01*
X0058084Y0203512D02*
X0064937Y0203512D01*
X0063338Y0205111D02*
X0059682Y0205111D01*
X0061020Y0206709D02*
X0062000Y0206709D01*
X0062000Y0208308D02*
X0061020Y0208308D01*
X0061020Y0209906D02*
X0062000Y0209906D01*
X0062000Y0211505D02*
X0061020Y0211505D01*
X0059668Y0213103D02*
X0063353Y0213103D01*
X0064951Y0214702D02*
X0058069Y0214702D01*
X0051172Y0214702D02*
X0044290Y0214702D01*
X0045888Y0213103D02*
X0049573Y0213103D01*
X0048220Y0211505D02*
X0047241Y0211505D01*
X0047241Y0209906D02*
X0048220Y0209906D01*
X0048220Y0208308D02*
X0047241Y0208308D01*
X0047241Y0206709D02*
X0048220Y0206709D01*
X0049559Y0205111D02*
X0045903Y0205111D01*
X0044304Y0203512D02*
X0051157Y0203512D01*
X0051400Y0201914D02*
X0043450Y0201914D01*
X0043462Y0200315D02*
X0051400Y0200315D01*
X0051400Y0198717D02*
X0043473Y0198717D01*
X0043485Y0197118D02*
X0051400Y0197118D01*
X0051400Y0195520D02*
X0043500Y0195520D01*
X0043500Y0193921D02*
X0051400Y0193921D01*
X0051400Y0192323D02*
X0043500Y0192323D01*
X0043818Y0190724D02*
X0051400Y0190724D01*
X0051400Y0189126D02*
X0045417Y0189126D01*
X0047015Y0187527D02*
X0051400Y0187527D01*
X0051400Y0185929D02*
X0048614Y0185929D01*
X0050212Y0184330D02*
X0051400Y0184330D01*
X0042023Y0179535D02*
X0012400Y0179535D01*
X0012400Y0181133D02*
X0040424Y0181133D01*
X0038826Y0182732D02*
X0012400Y0182732D01*
X0012400Y0184330D02*
X0037227Y0184330D01*
X0035629Y0185929D02*
X0012400Y0185929D01*
X0012400Y0187527D02*
X0034030Y0187527D01*
X0032432Y0189126D02*
X0012400Y0189126D01*
X0012400Y0190724D02*
X0030833Y0190724D01*
X0029234Y0192323D02*
X0012400Y0192323D01*
X0012400Y0193921D02*
X0027636Y0193921D01*
X0026037Y0195520D02*
X0012400Y0195520D01*
X0012400Y0197118D02*
X0024439Y0197118D01*
X0023800Y0198717D02*
X0012400Y0198717D01*
X0012400Y0200315D02*
X0023800Y0200315D01*
X0023800Y0201914D02*
X0012400Y0201914D01*
X0012400Y0203512D02*
X0023598Y0203512D01*
X0022000Y0205111D02*
X0012400Y0205111D01*
X0012400Y0206709D02*
X0020661Y0206709D01*
X0020661Y0208308D02*
X0012400Y0208308D01*
X0012449Y0209906D02*
X0020661Y0209906D01*
X0020661Y0211505D02*
X0014048Y0211505D01*
X0015646Y0213103D02*
X0022014Y0213103D01*
X0023612Y0214702D02*
X0017245Y0214702D01*
X0030510Y0214702D02*
X0037392Y0214702D01*
X0035793Y0213103D02*
X0032109Y0213103D01*
X0033461Y0211505D02*
X0034441Y0211505D01*
X0034441Y0209906D02*
X0033461Y0209906D01*
X0033461Y0208308D02*
X0034441Y0208308D01*
X0034441Y0206709D02*
X0033461Y0206709D01*
X0032123Y0205111D02*
X0035779Y0205111D01*
X0037378Y0203512D02*
X0030525Y0203512D01*
X0029800Y0201914D02*
X0037450Y0201914D01*
X0037461Y0200315D02*
X0029800Y0200315D01*
X0031326Y0198717D02*
X0037473Y0198717D01*
X0037485Y0197118D02*
X0032924Y0197118D01*
X0034523Y0195520D02*
X0037497Y0195520D01*
X0037500Y0193921D02*
X0036121Y0193921D01*
X0017458Y0177936D02*
X0012400Y0177936D01*
X0012400Y0176338D02*
X0017219Y0176338D01*
X0017219Y0174739D02*
X0012400Y0174739D01*
X0012400Y0173141D02*
X0017219Y0173141D01*
X0018001Y0171542D02*
X0012400Y0171542D01*
X0012400Y0165100D02*
X0043500Y0165100D01*
X0043500Y0159738D01*
X0043084Y0159322D01*
X0042719Y0158440D01*
X0042719Y0155868D01*
X0041038Y0154187D01*
X0040581Y0153085D01*
X0040581Y0145854D01*
X0039241Y0145854D01*
X0038359Y0145489D01*
X0037684Y0144814D01*
X0037319Y0143932D01*
X0037319Y0141796D01*
X0037684Y0140914D01*
X0037703Y0140895D01*
X0037684Y0140877D01*
X0037319Y0139995D01*
X0037319Y0137990D01*
X0037012Y0137990D01*
X0037012Y0140546D01*
X0036646Y0141428D01*
X0035971Y0142103D01*
X0035089Y0142468D01*
X0029804Y0142468D01*
X0029100Y0142177D01*
X0028754Y0142321D01*
X0028754Y0144231D01*
X0029291Y0144453D01*
X0029966Y0145128D01*
X0030331Y0146010D01*
X0030331Y0151690D01*
X0029966Y0152572D01*
X0029291Y0153247D01*
X0028409Y0153612D01*
X0024304Y0153612D01*
X0023422Y0153247D01*
X0022747Y0152572D01*
X0022382Y0151690D01*
X0022382Y0146010D01*
X0022747Y0145128D01*
X0022754Y0145122D01*
X0022754Y0142321D01*
X0022229Y0142103D01*
X0021554Y0141428D01*
X0021188Y0140546D01*
X0021188Y0135654D01*
X0021554Y0134772D01*
X0022229Y0134097D01*
X0023111Y0133731D01*
X0028396Y0133731D01*
X0029100Y0134023D01*
X0029446Y0133879D01*
X0029446Y0131321D01*
X0029100Y0131177D01*
X0028396Y0131468D01*
X0023111Y0131468D01*
X0022229Y0131103D01*
X0021554Y0130428D01*
X0021418Y0130100D01*
X0012400Y0130100D01*
X0012400Y0165100D01*
X0012400Y0163550D02*
X0043500Y0163550D01*
X0043500Y0161951D02*
X0012400Y0161951D01*
X0012400Y0160353D02*
X0043500Y0160353D01*
X0042849Y0158754D02*
X0012400Y0158754D01*
X0012400Y0157156D02*
X0042719Y0157156D01*
X0042408Y0155557D02*
X0012400Y0155557D01*
X0012400Y0153959D02*
X0040943Y0153959D01*
X0040581Y0152360D02*
X0030054Y0152360D01*
X0030331Y0150762D02*
X0040581Y0150762D01*
X0040581Y0149163D02*
X0030331Y0149163D01*
X0030331Y0147565D02*
X0040581Y0147565D01*
X0040581Y0145966D02*
X0030313Y0145966D01*
X0029084Y0144368D02*
X0037499Y0144368D01*
X0037319Y0142769D02*
X0028754Y0142769D01*
X0022754Y0142769D02*
X0012400Y0142769D01*
X0012400Y0144368D02*
X0022754Y0144368D01*
X0022400Y0145966D02*
X0012400Y0145966D01*
X0012400Y0147565D02*
X0022382Y0147565D01*
X0022382Y0149163D02*
X0012400Y0149163D01*
X0012400Y0150762D02*
X0022382Y0150762D01*
X0022660Y0152360D02*
X0012400Y0152360D01*
X0012400Y0141170D02*
X0021447Y0141170D01*
X0021188Y0139572D02*
X0012400Y0139572D01*
X0012400Y0137973D02*
X0021188Y0137973D01*
X0021188Y0136375D02*
X0012400Y0136375D01*
X0012400Y0134776D02*
X0021552Y0134776D01*
X0029446Y0133178D02*
X0012400Y0133178D01*
X0012400Y0131579D02*
X0029446Y0131579D01*
X0036753Y0141170D02*
X0037578Y0141170D01*
X0037319Y0139572D02*
X0037012Y0139572D01*
X0046581Y0145966D02*
X0050821Y0145966D01*
X0049652Y0147565D02*
X0046581Y0147565D01*
X0046581Y0149163D02*
X0049646Y0149163D01*
X0049646Y0150762D02*
X0046581Y0150762D01*
X0049886Y0109200D02*
X0042400Y0109200D01*
X0042400Y0107602D02*
X0049646Y0107602D01*
X0048161Y0106003D02*
X0042400Y0106003D01*
X0042400Y0104405D02*
X0046562Y0104405D01*
X0044964Y0102806D02*
X0042400Y0102806D01*
X0042400Y0101208D02*
X0044173Y0101208D01*
X0042706Y0099609D02*
X0042400Y0099609D01*
X0042400Y0098011D02*
X0042638Y0098011D01*
X0046758Y0093215D02*
X0053173Y0093215D01*
X0053573Y0094814D02*
X0051944Y0094814D01*
X0052162Y0096412D02*
X0053573Y0096412D01*
X0053573Y0098011D02*
X0052162Y0098011D01*
X0051574Y0091617D02*
X0045400Y0091617D01*
X0045400Y0090018D02*
X0049975Y0090018D01*
X0048377Y0088420D02*
X0045365Y0088420D01*
X0044364Y0086821D02*
X0046778Y0086821D01*
X0045180Y0085223D02*
X0042765Y0085223D01*
X0043581Y0083624D02*
X0041167Y0083624D01*
X0041983Y0082026D02*
X0039568Y0082026D01*
X0040384Y0080427D02*
X0037970Y0080427D01*
X0038786Y0078829D02*
X0036371Y0078829D01*
X0037187Y0077230D02*
X0034773Y0077230D01*
X0033943Y0076401D02*
X0033943Y0076401D01*
X0033174Y0075632D02*
X0035589Y0075632D01*
X0045200Y0066040D02*
X0045359Y0066040D01*
X0044434Y0064442D02*
X0043996Y0064442D01*
X0043510Y0062843D02*
X0042792Y0062843D01*
X0042585Y0061245D02*
X0041588Y0061245D01*
X0041661Y0059646D02*
X0040384Y0059646D01*
X0040736Y0058048D02*
X0039180Y0058048D01*
X0039812Y0056449D02*
X0037976Y0056449D01*
X0038887Y0054851D02*
X0036772Y0054851D01*
X0037963Y0053252D02*
X0035568Y0053252D01*
X0034364Y0051654D02*
X0037038Y0051654D01*
X0036114Y0050055D02*
X0033160Y0050055D01*
X0031956Y0048457D02*
X0035189Y0048457D01*
X0034265Y0046858D02*
X0030752Y0046858D01*
X0029548Y0045260D02*
X0033340Y0045260D01*
X0032416Y0043661D02*
X0028344Y0043661D01*
X0027140Y0042063D02*
X0031501Y0042063D01*
X0031390Y0040464D02*
X0025936Y0040464D01*
X0024732Y0038866D02*
X0031364Y0038866D01*
X0031339Y0037267D02*
X0023528Y0037267D01*
X0023400Y0035669D02*
X0031314Y0035669D01*
X0031289Y0034070D02*
X0023400Y0034070D01*
X0024079Y0032472D02*
X0030500Y0032472D01*
X0028902Y0030873D02*
X0025678Y0030873D01*
X0026800Y0029275D02*
X0027780Y0029275D01*
X0027780Y0027676D02*
X0026800Y0027676D01*
X0026800Y0026078D02*
X0027780Y0026078D01*
X0027780Y0024479D02*
X0026800Y0024479D01*
X0025232Y0022881D02*
X0029348Y0022881D01*
X0030946Y0021282D02*
X0023633Y0021282D01*
X0037413Y0021282D02*
X0044726Y0021282D01*
X0043127Y0022881D02*
X0039011Y0022881D01*
X0040580Y0024479D02*
X0041559Y0024479D01*
X0041559Y0026078D02*
X0040580Y0026078D01*
X0040580Y0027676D02*
X0041559Y0027676D01*
X0041559Y0029275D02*
X0040580Y0029275D01*
X0039457Y0030873D02*
X0042681Y0030873D01*
X0044280Y0032472D02*
X0037859Y0032472D01*
X0037290Y0034070D02*
X0045000Y0034070D01*
X0045000Y0035669D02*
X0037315Y0035669D01*
X0037340Y0037267D02*
X0045000Y0037267D01*
X0045000Y0038866D02*
X0037365Y0038866D01*
X0037498Y0040464D02*
X0045000Y0040464D01*
X0045000Y0042063D02*
X0038422Y0042063D01*
X0039347Y0043661D02*
X0045000Y0043661D01*
X0045000Y0045260D02*
X0040271Y0045260D01*
X0041196Y0046858D02*
X0045000Y0046858D01*
X0045191Y0048457D02*
X0042120Y0048457D01*
X0043045Y0050055D02*
X0045834Y0050055D01*
X0046477Y0051654D02*
X0043969Y0051654D01*
X0044894Y0053252D02*
X0047120Y0053252D01*
X0047763Y0054851D02*
X0045818Y0054851D01*
X0046743Y0056449D02*
X0048406Y0056449D01*
X0049048Y0058048D02*
X0047667Y0058048D01*
X0048592Y0059646D02*
X0049691Y0059646D01*
X0049516Y0061245D02*
X0050334Y0061245D01*
X0050441Y0062843D02*
X0050977Y0062843D01*
X0051366Y0064442D02*
X0051620Y0064442D01*
X0056801Y0061245D02*
X0062454Y0061245D01*
X0062452Y0062843D02*
X0057444Y0062843D01*
X0058087Y0064442D02*
X0062449Y0064442D01*
X0062447Y0066040D02*
X0058729Y0066040D01*
X0059372Y0067639D02*
X0062445Y0067639D01*
X0062442Y0069237D02*
X0060015Y0069237D01*
X0060658Y0070836D02*
X0062440Y0070836D01*
X0062437Y0072434D02*
X0061301Y0072434D01*
X0061943Y0074033D02*
X0062435Y0074033D01*
X0062457Y0059646D02*
X0056158Y0059646D01*
X0055515Y0058048D02*
X0062459Y0058048D01*
X0062461Y0056449D02*
X0054873Y0056449D01*
X0054230Y0054851D02*
X0062464Y0054851D01*
X0062466Y0053252D02*
X0053587Y0053252D01*
X0052944Y0051654D02*
X0062469Y0051654D01*
X0062471Y0050055D02*
X0052301Y0050055D01*
X0051658Y0048457D02*
X0062474Y0048457D01*
X0062476Y0046858D02*
X0051016Y0046858D01*
X0051000Y0045260D02*
X0062478Y0045260D01*
X0062481Y0043661D02*
X0051000Y0043661D01*
X0051000Y0042063D02*
X0062483Y0042063D01*
X0062486Y0040464D02*
X0051000Y0040464D01*
X0051000Y0038866D02*
X0062488Y0038866D01*
X0062490Y0037267D02*
X0051000Y0037267D01*
X0051000Y0035669D02*
X0062493Y0035669D01*
X0062495Y0034070D02*
X0051000Y0034070D01*
X0051638Y0032472D02*
X0058059Y0032472D01*
X0056461Y0030873D02*
X0053237Y0030873D01*
X0054359Y0029275D02*
X0055339Y0029275D01*
X0055339Y0027676D02*
X0054359Y0027676D01*
X0054359Y0026078D02*
X0055339Y0026078D01*
X0055339Y0024479D02*
X0054359Y0024479D01*
X0052791Y0022881D02*
X0056907Y0022881D01*
X0058505Y0021282D02*
X0051192Y0021282D01*
X0064972Y0021282D02*
X0071400Y0021282D01*
X0071400Y0022881D02*
X0066570Y0022881D01*
X0068139Y0024479D02*
X0071400Y0024479D01*
X0071400Y0026078D02*
X0068139Y0026078D01*
X0068139Y0027676D02*
X0071400Y0027676D01*
X0071400Y0029275D02*
X0068139Y0029275D01*
X0068500Y0030873D02*
X0071400Y0030873D01*
X0071400Y0032472D02*
X0068498Y0032472D01*
X0068495Y0034070D02*
X0071400Y0034070D01*
X0071400Y0035669D02*
X0068493Y0035669D01*
X0068490Y0037267D02*
X0071400Y0037267D01*
X0071400Y0038866D02*
X0068488Y0038866D01*
X0068486Y0040464D02*
X0071400Y0040464D01*
X0071400Y0042063D02*
X0068483Y0042063D01*
X0068481Y0043661D02*
X0071400Y0043661D01*
X0071169Y0045260D02*
X0068478Y0045260D01*
X0068476Y0046858D02*
X0069798Y0046858D01*
X0098819Y0083624D02*
X0152488Y0083624D01*
X0151954Y0080427D02*
X0102016Y0080427D01*
X0100417Y0082026D02*
X0167412Y0082026D01*
X0167414Y0083624D02*
X0162698Y0083624D01*
X0163438Y0085223D02*
X0167417Y0085223D01*
X0167419Y0086821D02*
X0163438Y0086821D01*
X0163438Y0088420D02*
X0167422Y0088420D01*
X0167424Y0090018D02*
X0163438Y0090018D01*
X0163438Y0091617D02*
X0167426Y0091617D01*
X0167429Y0093215D02*
X0163316Y0093215D01*
X0162434Y0094814D02*
X0167431Y0094814D01*
X0167434Y0096412D02*
X0162434Y0096412D01*
X0162434Y0098011D02*
X0167436Y0098011D01*
X0167438Y0099609D02*
X0162240Y0099609D01*
X0167441Y0101208D02*
X0119356Y0101208D01*
X0120566Y0102806D02*
X0167443Y0102806D01*
X0167446Y0104405D02*
X0120581Y0104405D01*
X0121546Y0106003D02*
X0167448Y0106003D01*
X0167451Y0107602D02*
X0123144Y0107602D01*
X0116934Y0099609D02*
X0115152Y0099609D01*
X0116492Y0098011D02*
X0113064Y0098011D01*
X0125229Y0091617D02*
X0151748Y0091617D01*
X0151728Y0093215D02*
X0131403Y0093215D01*
X0132040Y0094814D02*
X0151728Y0094814D01*
X0151728Y0096412D02*
X0132040Y0096412D01*
X0132040Y0098011D02*
X0151728Y0098011D01*
X0151922Y0099609D02*
X0131421Y0099609D01*
X0142331Y0117193D02*
X0144065Y0117193D01*
X0142466Y0118791D02*
X0141746Y0118791D01*
X0140868Y0120390D02*
X0140312Y0120390D01*
X0163232Y0080427D02*
X0167410Y0080427D01*
X0167407Y0078829D02*
X0163438Y0078829D01*
X0163438Y0077230D02*
X0167405Y0077230D01*
X0179451Y0010093D02*
X0180000Y0010093D01*
X0179981Y0008494D02*
X0180000Y0008494D01*
X0180000Y0006896D02*
X0179777Y0006896D01*
X0030464Y0056449D02*
X0023749Y0056449D01*
X0021788Y0054851D02*
X0029261Y0054851D01*
X0028057Y0053252D02*
X0020189Y0053252D01*
X0005340Y0221096D02*
X0005100Y0221096D01*
D17*
X0031400Y0115643D03*
X0031400Y0108557D03*
X0047400Y0097393D03*
X0047400Y0090307D03*
X0102050Y0142857D03*
X0102050Y0149943D03*
X0119900Y0153143D03*
X0119900Y0146057D03*
X0122900Y0122143D03*
X0122900Y0115057D03*
D18*
X0115743Y0121750D03*
X0108657Y0121750D03*
X0104643Y0107300D03*
X0097557Y0107300D03*
X0128857Y0157100D03*
X0135943Y0157100D03*
X0135943Y0167100D03*
X0128857Y0167100D03*
X0128607Y0177350D03*
X0135693Y0177350D03*
X0135693Y0187350D03*
X0128607Y0187350D03*
X0150607Y0187350D03*
X0157693Y0187350D03*
X0157193Y0176850D03*
X0150107Y0176850D03*
X0149857Y0166100D03*
X0156943Y0166100D03*
X0156943Y0156100D03*
X0149857Y0156100D03*
X0145443Y0114850D03*
X0138357Y0114850D03*
X0084243Y0163450D03*
X0077157Y0163450D03*
X0046693Y0155600D03*
X0039607Y0155600D03*
X0033443Y0148850D03*
X0026357Y0148850D03*
X0027857Y0098100D03*
X0034943Y0098100D03*
X0034943Y0088100D03*
X0027857Y0088100D03*
X0024757Y0061700D03*
X0031843Y0061700D03*
D19*
X0130384Y0124683D03*
X0132943Y0124683D03*
X0135502Y0124683D03*
X0138061Y0124683D03*
X0140620Y0124683D03*
X0143180Y0124683D03*
X0145739Y0124683D03*
X0148298Y0124683D03*
X0150857Y0124683D03*
X0153416Y0124683D03*
X0153416Y0147517D03*
X0150857Y0147517D03*
X0148298Y0147517D03*
X0145739Y0147517D03*
X0143180Y0147517D03*
X0140620Y0147517D03*
X0138061Y0147517D03*
X0135502Y0147517D03*
X0132943Y0147517D03*
X0130384Y0147517D03*
D20*
X0017650Y0108350D03*
X0017650Y0098350D03*
X0017650Y0088350D03*
X0017650Y0078350D03*
X0017650Y0068350D03*
X0017650Y0058350D03*
D21*
X0025754Y0127100D03*
X0032446Y0127100D03*
X0032446Y0138100D03*
X0025754Y0138100D03*
D22*
X0114601Y0051067D03*
D23*
X0124365Y0049334D03*
X0126884Y0096421D03*
D24*
X0157042Y0050830D03*
D25*
X0157632Y0060712D03*
X0157593Y0065082D03*
X0157593Y0069413D03*
X0157593Y0073744D03*
X0157593Y0078074D03*
X0157593Y0082405D03*
X0157593Y0086736D03*
X0157593Y0091067D03*
D26*
X0157081Y0096106D03*
D27*
X0120861Y0095122D03*
D28*
X0156400Y0031880D03*
X0156400Y0018100D03*
X0061739Y0027100D03*
X0047959Y0027100D03*
X0034180Y0027100D03*
X0020400Y0027100D03*
X0027061Y0209100D03*
X0040841Y0209100D03*
X0054620Y0209100D03*
X0068400Y0209100D03*
X0099061Y0209100D03*
X0112841Y0209100D03*
X0126620Y0209100D03*
X0140400Y0209100D03*
D29*
X0113959Y0026100D03*
X0100180Y0026100D03*
X0086400Y0026100D03*
D30*
X0082164Y0104281D03*
X0080195Y0104281D03*
X0078227Y0104281D03*
X0076258Y0104281D03*
X0074290Y0104281D03*
X0072321Y0104281D03*
X0070353Y0104281D03*
X0068384Y0104281D03*
X0066416Y0104281D03*
X0064447Y0104281D03*
X0062479Y0104281D03*
X0060510Y0104281D03*
X0058542Y0104281D03*
X0056573Y0104281D03*
X0054605Y0104281D03*
X0052636Y0104281D03*
X0052636Y0151919D03*
X0054605Y0151919D03*
X0056573Y0151919D03*
X0058542Y0151919D03*
X0060510Y0151919D03*
X0062479Y0151919D03*
X0064447Y0151919D03*
X0066416Y0151919D03*
X0068384Y0151919D03*
X0070353Y0151919D03*
X0072321Y0151919D03*
X0074290Y0151919D03*
X0076258Y0151919D03*
X0078227Y0151919D03*
X0080195Y0151919D03*
X0082164Y0151919D03*
D31*
X0091219Y0142864D03*
X0091219Y0140895D03*
X0091219Y0138927D03*
X0091219Y0136958D03*
X0091219Y0134990D03*
X0091219Y0133021D03*
X0091219Y0131053D03*
X0091219Y0129084D03*
X0091219Y0127116D03*
X0091219Y0125147D03*
X0091219Y0123179D03*
X0091219Y0121210D03*
X0091219Y0119242D03*
X0091219Y0117273D03*
X0091219Y0115305D03*
X0091219Y0113336D03*
X0043581Y0113336D03*
X0043581Y0115305D03*
X0043581Y0117273D03*
X0043581Y0119242D03*
X0043581Y0121210D03*
X0043581Y0123179D03*
X0043581Y0125147D03*
X0043581Y0127116D03*
X0043581Y0129084D03*
X0043581Y0131053D03*
X0043581Y0133021D03*
X0043581Y0134990D03*
X0043581Y0136958D03*
X0043581Y0138927D03*
X0043581Y0140895D03*
X0043581Y0142864D03*
D32*
X0043581Y0152488D01*
X0046693Y0155600D01*
X0046500Y0155793D01*
X0046500Y0167200D01*
X0045600Y0168100D01*
X0009400Y0168100D01*
X0009400Y0211100D01*
X0018400Y0220100D01*
X0084400Y0220100D01*
X0084400Y0162004D01*
X0084243Y0163450D01*
X0083200Y0162407D01*
X0083200Y0160600D01*
X0081000Y0158400D01*
X0078000Y0158400D01*
X0076258Y0156658D01*
X0076258Y0151919D01*
X0074290Y0151919D02*
X0074290Y0157586D01*
X0077157Y0163450D01*
X0070353Y0164947D02*
X0070353Y0151919D01*
X0072321Y0151919D02*
X0072321Y0205179D01*
X0068400Y0209100D01*
X0054620Y0209100D02*
X0054400Y0208880D01*
X0054400Y0180900D01*
X0070353Y0164947D01*
X0068384Y0161916D02*
X0040500Y0189800D01*
X0040500Y0195100D01*
X0040400Y0208659D01*
X0040841Y0209100D01*
X0027061Y0209100D02*
X0026800Y0208839D01*
X0026800Y0199000D01*
X0066416Y0159384D01*
X0066416Y0151919D01*
X0068384Y0151919D02*
X0068384Y0161916D01*
X0064447Y0157053D02*
X0046400Y0175100D01*
X0021400Y0175100D01*
X0009400Y0168100D02*
X0009400Y0126100D01*
X0010400Y0127100D01*
X0025754Y0127100D01*
X0032446Y0127100D02*
X0032446Y0134900D01*
X0032536Y0134990D01*
X0043581Y0134990D01*
X0043581Y0140895D02*
X0037401Y0140895D01*
X0034300Y0147300D01*
X0034300Y0149000D01*
X0033443Y0148850D01*
X0033600Y0148850D01*
X0034300Y0149000D01*
X0038400Y0155407D01*
X0039804Y0155407D01*
X0039607Y0155600D01*
X0033400Y0149004D02*
X0033443Y0148850D01*
X0026357Y0148850D02*
X0025754Y0148247D01*
X0025754Y0138100D01*
X0032446Y0138100D02*
X0032446Y0134900D01*
X0037647Y0125147D02*
X0036400Y0123900D01*
X0036400Y0099754D01*
X0034943Y0098100D01*
X0039400Y0092754D02*
X0034943Y0088100D01*
X0039400Y0092754D02*
X0039400Y0112100D01*
X0040636Y0113336D01*
X0043581Y0113336D01*
X0050681Y0104281D02*
X0047400Y0101000D01*
X0047400Y0097393D01*
X0046496Y0097196D01*
X0042400Y0093100D01*
X0042400Y0089100D01*
X0031400Y0078100D01*
X0017900Y0078100D01*
X0017650Y0078350D01*
X0011150Y0078350D01*
X0009400Y0080100D01*
X0009400Y0126100D01*
X0021400Y0118100D02*
X0023857Y0115643D01*
X0031400Y0115643D01*
X0031400Y0108557D02*
X0030996Y0108350D01*
X0017650Y0108350D01*
X0017650Y0098350D02*
X0027804Y0098350D01*
X0027857Y0098100D01*
X0027804Y0088350D02*
X0027857Y0088100D01*
X0027804Y0088350D02*
X0017650Y0088350D01*
X0017650Y0068350D02*
X0017400Y0068100D01*
X0012400Y0068100D01*
X0006400Y0062100D01*
X0006400Y0018100D01*
X0021400Y0008100D01*
X0143400Y0008100D01*
X0153400Y0018100D01*
X0156400Y0018100D01*
X0147400Y0024100D02*
X0147400Y0061041D01*
X0151459Y0065100D01*
X0157575Y0065100D01*
X0157593Y0065082D01*
X0157611Y0065100D01*
X0157280Y0069100D02*
X0157593Y0069413D01*
X0157280Y0069100D02*
X0104300Y0069100D01*
X0078227Y0095173D01*
X0078227Y0104281D01*
X0080195Y0104281D02*
X0080195Y0098005D01*
X0101100Y0077100D01*
X0156619Y0077100D01*
X0157593Y0078074D01*
X0157898Y0082100D02*
X0157593Y0082405D01*
X0157898Y0082100D02*
X0164400Y0082100D01*
X0166400Y0084100D01*
X0166400Y0105100D01*
X0156650Y0114850D01*
X0145443Y0114850D01*
X0145400Y0115004D01*
X0145400Y0117100D01*
X0140620Y0121880D01*
X0140620Y0124683D01*
X0143180Y0124683D02*
X0143180Y0122320D01*
X0146400Y0119100D01*
X0160400Y0119100D01*
X0166400Y0122100D01*
X0166400Y0133100D01*
X0160042Y0138058D01*
X0159642Y0138200D01*
X0103200Y0138200D01*
X0099858Y0137058D01*
X0099758Y0136958D01*
X0091219Y0136958D01*
X0091219Y0134990D02*
X0109300Y0134990D01*
X0110900Y0136000D01*
X0144390Y0135990D01*
X0145100Y0135100D01*
X0148400Y0129100D01*
X0148400Y0124785D01*
X0148298Y0124683D01*
X0150857Y0124683D02*
X0150857Y0129557D01*
X0152400Y0131100D01*
X0159400Y0131100D01*
X0160400Y0130100D01*
X0160400Y0128100D01*
X0170500Y0140400D02*
X0133500Y0140400D01*
X0130384Y0144116D01*
X0130384Y0147517D01*
X0129120Y0146254D01*
X0119900Y0146057D01*
X0116700Y0142857D01*
X0110843Y0142857D01*
X0110400Y0143300D01*
X0111400Y0144300D01*
X0111400Y0146800D01*
X0110843Y0142857D02*
X0102050Y0142857D01*
X0098120Y0138927D01*
X0091219Y0138927D01*
X0091219Y0140895D02*
X0079700Y0140895D01*
X0088748Y0149943D01*
X0102050Y0149943D01*
X0102050Y0150850D01*
X0107400Y0156200D01*
X0119000Y0156200D01*
X0119400Y0155800D01*
X0119400Y0153446D01*
X0119900Y0153143D01*
X0119400Y0155800D02*
X0119400Y0159100D01*
X0126400Y0167100D01*
X0128857Y0167100D01*
X0135943Y0167100D02*
X0138400Y0166100D01*
X0140620Y0163880D01*
X0140620Y0147517D01*
X0143180Y0147517D02*
X0143180Y0169667D01*
X0135693Y0177350D01*
X0128607Y0177350D02*
X0128607Y0187350D01*
X0128804Y0193137D01*
X0112841Y0209100D01*
X0119400Y0220100D02*
X0084400Y0220100D01*
X0099061Y0209100D02*
X0099400Y0208761D01*
X0099400Y0166100D01*
X0085238Y0151938D01*
X0082183Y0151938D01*
X0082164Y0151919D01*
X0074290Y0151919D02*
X0074290Y0142990D01*
X0076384Y0140895D01*
X0079700Y0140895D01*
X0074290Y0142990D02*
X0067400Y0136100D01*
X0067400Y0132100D01*
X0084195Y0115305D01*
X0091219Y0115305D01*
X0098695Y0115305D01*
X0104600Y0109400D01*
X0104600Y0107343D01*
X0104643Y0107300D01*
X0110400Y0112754D01*
X0110400Y0117100D01*
X0112746Y0118754D01*
X0115743Y0121750D01*
X0122507Y0121750D01*
X0122900Y0122143D01*
X0122804Y0121850D01*
X0122900Y0122143D02*
X0122900Y0126600D01*
X0125400Y0128700D01*
X0132400Y0128700D01*
X0132943Y0128557D01*
X0132943Y0124683D01*
X0132943Y0111557D01*
X0135400Y0109100D01*
X0144400Y0109100D01*
X0146400Y0111100D01*
X0146400Y0113696D01*
X0145443Y0114850D01*
X0138357Y0114850D02*
X0135502Y0117901D01*
X0135502Y0124683D01*
X0138061Y0124683D02*
X0138061Y0129339D01*
X0136600Y0130800D01*
X0101000Y0130800D01*
X0100900Y0130700D01*
X0097600Y0129100D01*
X0090054Y0129100D01*
X0091219Y0129084D01*
X0091219Y0131053D02*
X0095353Y0131053D01*
X0098800Y0132900D01*
X0111000Y0132900D01*
X0112900Y0133700D01*
X0142900Y0133700D01*
X0145739Y0128761D01*
X0145739Y0124683D01*
X0130400Y0124667D02*
X0130400Y0118100D01*
X0127554Y0115254D01*
X0122900Y0115057D01*
X0122900Y0111600D01*
X0116400Y0105100D01*
X0112200Y0100900D01*
X0102300Y0100900D01*
X0097557Y0105643D01*
X0097557Y0107300D01*
X0091520Y0113336D01*
X0091219Y0113336D01*
X0091219Y0117273D02*
X0104180Y0117273D01*
X0108657Y0121750D01*
X0101900Y0124300D02*
X0100400Y0122900D01*
X0096742Y0119242D01*
X0091219Y0119242D01*
X0084400Y0111100D02*
X0108400Y0087100D01*
X0157229Y0087100D01*
X0157593Y0086736D01*
X0157593Y0073744D02*
X0170044Y0073744D01*
X0170400Y0074100D01*
X0170500Y0140400D01*
X0170400Y0203100D01*
X0153400Y0220100D01*
X0119400Y0220100D01*
X0126620Y0209100D02*
X0133400Y0209100D01*
X0133400Y0217100D01*
X0149400Y0217100D01*
X0163400Y0203100D01*
X0163400Y0171100D01*
X0158400Y0166100D01*
X0156943Y0166100D01*
X0156943Y0156100D01*
X0156746Y0144446D01*
X0155400Y0143100D01*
X0150400Y0143100D01*
X0137400Y0143100D01*
X0135400Y0144100D01*
X0135400Y0147415D01*
X0135502Y0147517D01*
X0138061Y0147517D02*
X0138061Y0153785D01*
X0135943Y0157100D01*
X0132943Y0150557D02*
X0129400Y0154100D01*
X0129400Y0155754D01*
X0128857Y0157100D01*
X0132943Y0150557D02*
X0132943Y0147517D01*
X0145739Y0147517D02*
X0145739Y0172285D01*
X0150107Y0176850D01*
X0157193Y0176850D02*
X0156996Y0186850D01*
X0157693Y0187350D01*
X0157400Y0187446D01*
X0157400Y0195100D01*
X0143400Y0209100D01*
X0140400Y0209100D01*
X0133400Y0209100D02*
X0133400Y0208100D01*
X0135496Y0200224D01*
X0135693Y0187350D01*
X0150607Y0187350D01*
X0149857Y0166100D02*
X0149857Y0156100D01*
X0148298Y0154344D01*
X0148298Y0147517D01*
X0150857Y0147517D02*
X0150857Y0143557D01*
X0150400Y0143100D01*
X0130400Y0124667D02*
X0130384Y0124683D01*
X0116400Y0105100D02*
X0115400Y0104100D01*
X0086400Y0073000D02*
X0070353Y0089047D01*
X0070353Y0104281D01*
X0072321Y0104281D02*
X0072321Y0100179D01*
X0072900Y0097500D01*
X0072900Y0090600D01*
X0073950Y0089550D01*
X0075600Y0087900D01*
X0100400Y0063100D01*
X0100400Y0026320D01*
X0100180Y0026100D01*
X0105400Y0034659D02*
X0113959Y0026100D01*
X0105400Y0034659D02*
X0105400Y0063100D01*
X0075400Y0093400D01*
X0075400Y0097600D01*
X0074290Y0100310D01*
X0074290Y0104281D01*
X0076258Y0104281D02*
X0076258Y0109958D01*
X0077400Y0111100D01*
X0084400Y0111100D01*
X0068384Y0104281D02*
X0068384Y0100384D01*
X0067900Y0097300D01*
X0067900Y0053700D01*
X0068384Y0053116D01*
X0074400Y0046100D01*
X0074400Y0016100D01*
X0078400Y0013100D01*
X0136400Y0013100D01*
X0147400Y0024100D01*
X0156400Y0031880D02*
X0166400Y0031880D01*
X0170400Y0035880D01*
X0170400Y0074100D01*
X0086400Y0073000D02*
X0086400Y0026100D01*
X0065500Y0030861D02*
X0061739Y0027100D01*
X0064447Y0029809D01*
X0065500Y0030861D02*
X0065400Y0097300D01*
X0064447Y0100347D01*
X0064447Y0104281D01*
X0062479Y0104281D02*
X0062500Y0103681D01*
X0062500Y0100300D01*
X0063200Y0096800D01*
X0063200Y0085198D01*
X0048000Y0047400D01*
X0048000Y0029100D01*
X0047959Y0029100D01*
X0047959Y0029659D01*
X0047959Y0029100D02*
X0047959Y0027100D01*
X0034180Y0027100D02*
X0034400Y0041100D01*
X0061010Y0087110D01*
X0061000Y0096500D01*
X0060500Y0100500D01*
X0060500Y0104281D01*
X0060510Y0104281D01*
X0058542Y0104281D02*
X0058542Y0088742D01*
X0020400Y0038100D01*
X0020400Y0027100D01*
X0017650Y0058350D02*
X0018054Y0058754D01*
X0021810Y0058754D01*
X0024757Y0061700D01*
X0025400Y0068100D02*
X0017900Y0068100D01*
X0017650Y0068350D01*
X0025400Y0068100D02*
X0047400Y0089100D01*
X0047400Y0090307D01*
X0048600Y0090304D01*
X0054600Y0098400D01*
X0054605Y0102708D01*
X0054605Y0104281D01*
X0054605Y0135895D01*
X0049605Y0140895D01*
X0043581Y0140895D01*
X0054605Y0135895D02*
X0054809Y0136100D01*
X0067400Y0136100D01*
X0064447Y0151919D02*
X0064447Y0157053D01*
X0043581Y0125147D02*
X0037647Y0125147D01*
X0050681Y0104281D02*
X0052636Y0104281D01*
X0056573Y0104281D02*
X0056573Y0092373D01*
X0031600Y0067400D01*
X0031600Y0061943D01*
X0031843Y0061700D01*
D33*
X0132400Y0160100D02*
X0128400Y0164100D01*
X0128400Y0165446D01*
X0128857Y0167100D01*
X0132400Y0160100D02*
X0132400Y0154100D01*
X0135502Y0150998D01*
X0135502Y0147517D01*
X0149857Y0166100D02*
X0150054Y0169754D01*
X0153700Y0173200D01*
X0153700Y0181200D01*
X0152400Y0182100D01*
X0132100Y0182100D01*
X0132100Y0194100D01*
X0119400Y0207100D01*
X0119400Y0220100D01*
D34*
X0111400Y0146800D03*
X0101900Y0124300D03*
X0116400Y0105100D03*
X0160400Y0128100D03*
X0021400Y0118100D03*
X0021400Y0175100D03*
M02*
