G75*
%MOIN*%
%OFA0B0*%
%FSLAX25Y25*%
%IPPOS*%
%LPD*%
%AMOC8*
5,1,8,0,0,1.08239X$1,22.5*
%
%ADD10C,0.00000*%
%ADD11C,0.02762*%
%ADD12C,0.01600*%
%ADD13OC8,0.06400*%
%ADD14OC8,0.08400*%
%ADD15OC8,0.09900*%
D10*
X0001900Y0002100D02*
X0001900Y0230801D01*
X0001900Y0231100D02*
X0183071Y0231100D01*
X0183071Y0002100D01*
X0001900Y0002100D01*
X0007219Y0008100D02*
X0007221Y0008169D01*
X0007227Y0008237D01*
X0007237Y0008305D01*
X0007251Y0008372D01*
X0007269Y0008439D01*
X0007290Y0008504D01*
X0007316Y0008568D01*
X0007345Y0008630D01*
X0007377Y0008690D01*
X0007413Y0008749D01*
X0007453Y0008805D01*
X0007495Y0008859D01*
X0007541Y0008910D01*
X0007590Y0008959D01*
X0007641Y0009005D01*
X0007695Y0009047D01*
X0007751Y0009087D01*
X0007809Y0009123D01*
X0007870Y0009155D01*
X0007932Y0009184D01*
X0007996Y0009210D01*
X0008061Y0009231D01*
X0008128Y0009249D01*
X0008195Y0009263D01*
X0008263Y0009273D01*
X0008331Y0009279D01*
X0008400Y0009281D01*
X0008469Y0009279D01*
X0008537Y0009273D01*
X0008605Y0009263D01*
X0008672Y0009249D01*
X0008739Y0009231D01*
X0008804Y0009210D01*
X0008868Y0009184D01*
X0008930Y0009155D01*
X0008990Y0009123D01*
X0009049Y0009087D01*
X0009105Y0009047D01*
X0009159Y0009005D01*
X0009210Y0008959D01*
X0009259Y0008910D01*
X0009305Y0008859D01*
X0009347Y0008805D01*
X0009387Y0008749D01*
X0009423Y0008690D01*
X0009455Y0008630D01*
X0009484Y0008568D01*
X0009510Y0008504D01*
X0009531Y0008439D01*
X0009549Y0008372D01*
X0009563Y0008305D01*
X0009573Y0008237D01*
X0009579Y0008169D01*
X0009581Y0008100D01*
X0009579Y0008031D01*
X0009573Y0007963D01*
X0009563Y0007895D01*
X0009549Y0007828D01*
X0009531Y0007761D01*
X0009510Y0007696D01*
X0009484Y0007632D01*
X0009455Y0007570D01*
X0009423Y0007509D01*
X0009387Y0007451D01*
X0009347Y0007395D01*
X0009305Y0007341D01*
X0009259Y0007290D01*
X0009210Y0007241D01*
X0009159Y0007195D01*
X0009105Y0007153D01*
X0009049Y0007113D01*
X0008991Y0007077D01*
X0008930Y0007045D01*
X0008868Y0007016D01*
X0008804Y0006990D01*
X0008739Y0006969D01*
X0008672Y0006951D01*
X0008605Y0006937D01*
X0008537Y0006927D01*
X0008469Y0006921D01*
X0008400Y0006919D01*
X0008331Y0006921D01*
X0008263Y0006927D01*
X0008195Y0006937D01*
X0008128Y0006951D01*
X0008061Y0006969D01*
X0007996Y0006990D01*
X0007932Y0007016D01*
X0007870Y0007045D01*
X0007809Y0007077D01*
X0007751Y0007113D01*
X0007695Y0007153D01*
X0007641Y0007195D01*
X0007590Y0007241D01*
X0007541Y0007290D01*
X0007495Y0007341D01*
X0007453Y0007395D01*
X0007413Y0007451D01*
X0007377Y0007509D01*
X0007345Y0007570D01*
X0007316Y0007632D01*
X0007290Y0007696D01*
X0007269Y0007761D01*
X0007251Y0007828D01*
X0007237Y0007895D01*
X0007227Y0007963D01*
X0007221Y0008031D01*
X0007219Y0008100D01*
X0175219Y0008100D02*
X0175221Y0008169D01*
X0175227Y0008237D01*
X0175237Y0008305D01*
X0175251Y0008372D01*
X0175269Y0008439D01*
X0175290Y0008504D01*
X0175316Y0008568D01*
X0175345Y0008630D01*
X0175377Y0008690D01*
X0175413Y0008749D01*
X0175453Y0008805D01*
X0175495Y0008859D01*
X0175541Y0008910D01*
X0175590Y0008959D01*
X0175641Y0009005D01*
X0175695Y0009047D01*
X0175751Y0009087D01*
X0175809Y0009123D01*
X0175870Y0009155D01*
X0175932Y0009184D01*
X0175996Y0009210D01*
X0176061Y0009231D01*
X0176128Y0009249D01*
X0176195Y0009263D01*
X0176263Y0009273D01*
X0176331Y0009279D01*
X0176400Y0009281D01*
X0176469Y0009279D01*
X0176537Y0009273D01*
X0176605Y0009263D01*
X0176672Y0009249D01*
X0176739Y0009231D01*
X0176804Y0009210D01*
X0176868Y0009184D01*
X0176930Y0009155D01*
X0176990Y0009123D01*
X0177049Y0009087D01*
X0177105Y0009047D01*
X0177159Y0009005D01*
X0177210Y0008959D01*
X0177259Y0008910D01*
X0177305Y0008859D01*
X0177347Y0008805D01*
X0177387Y0008749D01*
X0177423Y0008690D01*
X0177455Y0008630D01*
X0177484Y0008568D01*
X0177510Y0008504D01*
X0177531Y0008439D01*
X0177549Y0008372D01*
X0177563Y0008305D01*
X0177573Y0008237D01*
X0177579Y0008169D01*
X0177581Y0008100D01*
X0177579Y0008031D01*
X0177573Y0007963D01*
X0177563Y0007895D01*
X0177549Y0007828D01*
X0177531Y0007761D01*
X0177510Y0007696D01*
X0177484Y0007632D01*
X0177455Y0007570D01*
X0177423Y0007509D01*
X0177387Y0007451D01*
X0177347Y0007395D01*
X0177305Y0007341D01*
X0177259Y0007290D01*
X0177210Y0007241D01*
X0177159Y0007195D01*
X0177105Y0007153D01*
X0177049Y0007113D01*
X0176991Y0007077D01*
X0176930Y0007045D01*
X0176868Y0007016D01*
X0176804Y0006990D01*
X0176739Y0006969D01*
X0176672Y0006951D01*
X0176605Y0006937D01*
X0176537Y0006927D01*
X0176469Y0006921D01*
X0176400Y0006919D01*
X0176331Y0006921D01*
X0176263Y0006927D01*
X0176195Y0006937D01*
X0176128Y0006951D01*
X0176061Y0006969D01*
X0175996Y0006990D01*
X0175932Y0007016D01*
X0175870Y0007045D01*
X0175809Y0007077D01*
X0175751Y0007113D01*
X0175695Y0007153D01*
X0175641Y0007195D01*
X0175590Y0007241D01*
X0175541Y0007290D01*
X0175495Y0007341D01*
X0175453Y0007395D01*
X0175413Y0007451D01*
X0175377Y0007509D01*
X0175345Y0007570D01*
X0175316Y0007632D01*
X0175290Y0007696D01*
X0175269Y0007761D01*
X0175251Y0007828D01*
X0175237Y0007895D01*
X0175227Y0007963D01*
X0175221Y0008031D01*
X0175219Y0008100D01*
X0176219Y0224100D02*
X0176221Y0224169D01*
X0176227Y0224237D01*
X0176237Y0224305D01*
X0176251Y0224372D01*
X0176269Y0224439D01*
X0176290Y0224504D01*
X0176316Y0224568D01*
X0176345Y0224630D01*
X0176377Y0224690D01*
X0176413Y0224749D01*
X0176453Y0224805D01*
X0176495Y0224859D01*
X0176541Y0224910D01*
X0176590Y0224959D01*
X0176641Y0225005D01*
X0176695Y0225047D01*
X0176751Y0225087D01*
X0176809Y0225123D01*
X0176870Y0225155D01*
X0176932Y0225184D01*
X0176996Y0225210D01*
X0177061Y0225231D01*
X0177128Y0225249D01*
X0177195Y0225263D01*
X0177263Y0225273D01*
X0177331Y0225279D01*
X0177400Y0225281D01*
X0177469Y0225279D01*
X0177537Y0225273D01*
X0177605Y0225263D01*
X0177672Y0225249D01*
X0177739Y0225231D01*
X0177804Y0225210D01*
X0177868Y0225184D01*
X0177930Y0225155D01*
X0177990Y0225123D01*
X0178049Y0225087D01*
X0178105Y0225047D01*
X0178159Y0225005D01*
X0178210Y0224959D01*
X0178259Y0224910D01*
X0178305Y0224859D01*
X0178347Y0224805D01*
X0178387Y0224749D01*
X0178423Y0224690D01*
X0178455Y0224630D01*
X0178484Y0224568D01*
X0178510Y0224504D01*
X0178531Y0224439D01*
X0178549Y0224372D01*
X0178563Y0224305D01*
X0178573Y0224237D01*
X0178579Y0224169D01*
X0178581Y0224100D01*
X0178579Y0224031D01*
X0178573Y0223963D01*
X0178563Y0223895D01*
X0178549Y0223828D01*
X0178531Y0223761D01*
X0178510Y0223696D01*
X0178484Y0223632D01*
X0178455Y0223570D01*
X0178423Y0223509D01*
X0178387Y0223451D01*
X0178347Y0223395D01*
X0178305Y0223341D01*
X0178259Y0223290D01*
X0178210Y0223241D01*
X0178159Y0223195D01*
X0178105Y0223153D01*
X0178049Y0223113D01*
X0177991Y0223077D01*
X0177930Y0223045D01*
X0177868Y0223016D01*
X0177804Y0222990D01*
X0177739Y0222969D01*
X0177672Y0222951D01*
X0177605Y0222937D01*
X0177537Y0222927D01*
X0177469Y0222921D01*
X0177400Y0222919D01*
X0177331Y0222921D01*
X0177263Y0222927D01*
X0177195Y0222937D01*
X0177128Y0222951D01*
X0177061Y0222969D01*
X0176996Y0222990D01*
X0176932Y0223016D01*
X0176870Y0223045D01*
X0176809Y0223077D01*
X0176751Y0223113D01*
X0176695Y0223153D01*
X0176641Y0223195D01*
X0176590Y0223241D01*
X0176541Y0223290D01*
X0176495Y0223341D01*
X0176453Y0223395D01*
X0176413Y0223451D01*
X0176377Y0223509D01*
X0176345Y0223570D01*
X0176316Y0223632D01*
X0176290Y0223696D01*
X0176269Y0223761D01*
X0176251Y0223828D01*
X0176237Y0223895D01*
X0176227Y0223963D01*
X0176221Y0224031D01*
X0176219Y0224100D01*
X0006219Y0224100D02*
X0006221Y0224169D01*
X0006227Y0224237D01*
X0006237Y0224305D01*
X0006251Y0224372D01*
X0006269Y0224439D01*
X0006290Y0224504D01*
X0006316Y0224568D01*
X0006345Y0224630D01*
X0006377Y0224690D01*
X0006413Y0224749D01*
X0006453Y0224805D01*
X0006495Y0224859D01*
X0006541Y0224910D01*
X0006590Y0224959D01*
X0006641Y0225005D01*
X0006695Y0225047D01*
X0006751Y0225087D01*
X0006809Y0225123D01*
X0006870Y0225155D01*
X0006932Y0225184D01*
X0006996Y0225210D01*
X0007061Y0225231D01*
X0007128Y0225249D01*
X0007195Y0225263D01*
X0007263Y0225273D01*
X0007331Y0225279D01*
X0007400Y0225281D01*
X0007469Y0225279D01*
X0007537Y0225273D01*
X0007605Y0225263D01*
X0007672Y0225249D01*
X0007739Y0225231D01*
X0007804Y0225210D01*
X0007868Y0225184D01*
X0007930Y0225155D01*
X0007990Y0225123D01*
X0008049Y0225087D01*
X0008105Y0225047D01*
X0008159Y0225005D01*
X0008210Y0224959D01*
X0008259Y0224910D01*
X0008305Y0224859D01*
X0008347Y0224805D01*
X0008387Y0224749D01*
X0008423Y0224690D01*
X0008455Y0224630D01*
X0008484Y0224568D01*
X0008510Y0224504D01*
X0008531Y0224439D01*
X0008549Y0224372D01*
X0008563Y0224305D01*
X0008573Y0224237D01*
X0008579Y0224169D01*
X0008581Y0224100D01*
X0008579Y0224031D01*
X0008573Y0223963D01*
X0008563Y0223895D01*
X0008549Y0223828D01*
X0008531Y0223761D01*
X0008510Y0223696D01*
X0008484Y0223632D01*
X0008455Y0223570D01*
X0008423Y0223509D01*
X0008387Y0223451D01*
X0008347Y0223395D01*
X0008305Y0223341D01*
X0008259Y0223290D01*
X0008210Y0223241D01*
X0008159Y0223195D01*
X0008105Y0223153D01*
X0008049Y0223113D01*
X0007991Y0223077D01*
X0007930Y0223045D01*
X0007868Y0223016D01*
X0007804Y0222990D01*
X0007739Y0222969D01*
X0007672Y0222951D01*
X0007605Y0222937D01*
X0007537Y0222927D01*
X0007469Y0222921D01*
X0007400Y0222919D01*
X0007331Y0222921D01*
X0007263Y0222927D01*
X0007195Y0222937D01*
X0007128Y0222951D01*
X0007061Y0222969D01*
X0006996Y0222990D01*
X0006932Y0223016D01*
X0006870Y0223045D01*
X0006809Y0223077D01*
X0006751Y0223113D01*
X0006695Y0223153D01*
X0006641Y0223195D01*
X0006590Y0223241D01*
X0006541Y0223290D01*
X0006495Y0223341D01*
X0006453Y0223395D01*
X0006413Y0223451D01*
X0006377Y0223509D01*
X0006345Y0223570D01*
X0006316Y0223632D01*
X0006290Y0223696D01*
X0006269Y0223761D01*
X0006251Y0223828D01*
X0006237Y0223895D01*
X0006227Y0223963D01*
X0006221Y0224031D01*
X0006219Y0224100D01*
D11*
X0007400Y0224100D03*
X0177400Y0224100D03*
X0176400Y0008100D03*
X0008400Y0008100D03*
D12*
X0001900Y0002100D02*
X0001900Y0230900D01*
X0183200Y0230900D01*
X0183200Y0002100D01*
X0001900Y0002100D01*
D13*
X0017650Y0058350D03*
X0017650Y0068350D03*
X0017650Y0078350D03*
X0017650Y0088350D03*
X0017650Y0098350D03*
X0017650Y0108350D03*
D14*
X0020400Y0027100D03*
X0034180Y0027100D03*
X0047959Y0027100D03*
X0061739Y0027100D03*
X0156400Y0031880D03*
X0156400Y0018100D03*
X0140400Y0209100D03*
X0126620Y0209100D03*
X0112841Y0209100D03*
X0099061Y0209100D03*
X0068400Y0209100D03*
X0054620Y0209100D03*
X0040841Y0209100D03*
X0027061Y0209100D03*
D15*
X0086400Y0026100D03*
X0100180Y0026100D03*
X0113959Y0026100D03*
M02*
