G75*
%MOIN*%
%OFA0B0*%
%FSLAX25Y25*%
%IPPOS*%
%LPD*%
%AMOC8*
5,1,8,0,0,1.08239X$1,22.5*
%
%ADD10C,0.00000*%
%ADD11C,0.01600*%
%ADD12C,0.00300*%
%ADD13C,0.00600*%
%ADD14C,0.00800*%
D10*
X0001900Y0002100D02*
X0001900Y0230801D01*
X0001900Y0231100D02*
X0183071Y0231100D01*
X0183071Y0002100D01*
X0001900Y0002100D01*
X0007219Y0008100D02*
X0007221Y0008169D01*
X0007227Y0008237D01*
X0007237Y0008305D01*
X0007251Y0008372D01*
X0007269Y0008439D01*
X0007290Y0008504D01*
X0007316Y0008568D01*
X0007345Y0008630D01*
X0007377Y0008690D01*
X0007413Y0008749D01*
X0007453Y0008805D01*
X0007495Y0008859D01*
X0007541Y0008910D01*
X0007590Y0008959D01*
X0007641Y0009005D01*
X0007695Y0009047D01*
X0007751Y0009087D01*
X0007809Y0009123D01*
X0007870Y0009155D01*
X0007932Y0009184D01*
X0007996Y0009210D01*
X0008061Y0009231D01*
X0008128Y0009249D01*
X0008195Y0009263D01*
X0008263Y0009273D01*
X0008331Y0009279D01*
X0008400Y0009281D01*
X0008469Y0009279D01*
X0008537Y0009273D01*
X0008605Y0009263D01*
X0008672Y0009249D01*
X0008739Y0009231D01*
X0008804Y0009210D01*
X0008868Y0009184D01*
X0008930Y0009155D01*
X0008990Y0009123D01*
X0009049Y0009087D01*
X0009105Y0009047D01*
X0009159Y0009005D01*
X0009210Y0008959D01*
X0009259Y0008910D01*
X0009305Y0008859D01*
X0009347Y0008805D01*
X0009387Y0008749D01*
X0009423Y0008690D01*
X0009455Y0008630D01*
X0009484Y0008568D01*
X0009510Y0008504D01*
X0009531Y0008439D01*
X0009549Y0008372D01*
X0009563Y0008305D01*
X0009573Y0008237D01*
X0009579Y0008169D01*
X0009581Y0008100D01*
X0009579Y0008031D01*
X0009573Y0007963D01*
X0009563Y0007895D01*
X0009549Y0007828D01*
X0009531Y0007761D01*
X0009510Y0007696D01*
X0009484Y0007632D01*
X0009455Y0007570D01*
X0009423Y0007509D01*
X0009387Y0007451D01*
X0009347Y0007395D01*
X0009305Y0007341D01*
X0009259Y0007290D01*
X0009210Y0007241D01*
X0009159Y0007195D01*
X0009105Y0007153D01*
X0009049Y0007113D01*
X0008991Y0007077D01*
X0008930Y0007045D01*
X0008868Y0007016D01*
X0008804Y0006990D01*
X0008739Y0006969D01*
X0008672Y0006951D01*
X0008605Y0006937D01*
X0008537Y0006927D01*
X0008469Y0006921D01*
X0008400Y0006919D01*
X0008331Y0006921D01*
X0008263Y0006927D01*
X0008195Y0006937D01*
X0008128Y0006951D01*
X0008061Y0006969D01*
X0007996Y0006990D01*
X0007932Y0007016D01*
X0007870Y0007045D01*
X0007809Y0007077D01*
X0007751Y0007113D01*
X0007695Y0007153D01*
X0007641Y0007195D01*
X0007590Y0007241D01*
X0007541Y0007290D01*
X0007495Y0007341D01*
X0007453Y0007395D01*
X0007413Y0007451D01*
X0007377Y0007509D01*
X0007345Y0007570D01*
X0007316Y0007632D01*
X0007290Y0007696D01*
X0007269Y0007761D01*
X0007251Y0007828D01*
X0007237Y0007895D01*
X0007227Y0007963D01*
X0007221Y0008031D01*
X0007219Y0008100D01*
X0175219Y0008100D02*
X0175221Y0008169D01*
X0175227Y0008237D01*
X0175237Y0008305D01*
X0175251Y0008372D01*
X0175269Y0008439D01*
X0175290Y0008504D01*
X0175316Y0008568D01*
X0175345Y0008630D01*
X0175377Y0008690D01*
X0175413Y0008749D01*
X0175453Y0008805D01*
X0175495Y0008859D01*
X0175541Y0008910D01*
X0175590Y0008959D01*
X0175641Y0009005D01*
X0175695Y0009047D01*
X0175751Y0009087D01*
X0175809Y0009123D01*
X0175870Y0009155D01*
X0175932Y0009184D01*
X0175996Y0009210D01*
X0176061Y0009231D01*
X0176128Y0009249D01*
X0176195Y0009263D01*
X0176263Y0009273D01*
X0176331Y0009279D01*
X0176400Y0009281D01*
X0176469Y0009279D01*
X0176537Y0009273D01*
X0176605Y0009263D01*
X0176672Y0009249D01*
X0176739Y0009231D01*
X0176804Y0009210D01*
X0176868Y0009184D01*
X0176930Y0009155D01*
X0176990Y0009123D01*
X0177049Y0009087D01*
X0177105Y0009047D01*
X0177159Y0009005D01*
X0177210Y0008959D01*
X0177259Y0008910D01*
X0177305Y0008859D01*
X0177347Y0008805D01*
X0177387Y0008749D01*
X0177423Y0008690D01*
X0177455Y0008630D01*
X0177484Y0008568D01*
X0177510Y0008504D01*
X0177531Y0008439D01*
X0177549Y0008372D01*
X0177563Y0008305D01*
X0177573Y0008237D01*
X0177579Y0008169D01*
X0177581Y0008100D01*
X0177579Y0008031D01*
X0177573Y0007963D01*
X0177563Y0007895D01*
X0177549Y0007828D01*
X0177531Y0007761D01*
X0177510Y0007696D01*
X0177484Y0007632D01*
X0177455Y0007570D01*
X0177423Y0007509D01*
X0177387Y0007451D01*
X0177347Y0007395D01*
X0177305Y0007341D01*
X0177259Y0007290D01*
X0177210Y0007241D01*
X0177159Y0007195D01*
X0177105Y0007153D01*
X0177049Y0007113D01*
X0176991Y0007077D01*
X0176930Y0007045D01*
X0176868Y0007016D01*
X0176804Y0006990D01*
X0176739Y0006969D01*
X0176672Y0006951D01*
X0176605Y0006937D01*
X0176537Y0006927D01*
X0176469Y0006921D01*
X0176400Y0006919D01*
X0176331Y0006921D01*
X0176263Y0006927D01*
X0176195Y0006937D01*
X0176128Y0006951D01*
X0176061Y0006969D01*
X0175996Y0006990D01*
X0175932Y0007016D01*
X0175870Y0007045D01*
X0175809Y0007077D01*
X0175751Y0007113D01*
X0175695Y0007153D01*
X0175641Y0007195D01*
X0175590Y0007241D01*
X0175541Y0007290D01*
X0175495Y0007341D01*
X0175453Y0007395D01*
X0175413Y0007451D01*
X0175377Y0007509D01*
X0175345Y0007570D01*
X0175316Y0007632D01*
X0175290Y0007696D01*
X0175269Y0007761D01*
X0175251Y0007828D01*
X0175237Y0007895D01*
X0175227Y0007963D01*
X0175221Y0008031D01*
X0175219Y0008100D01*
X0176219Y0224100D02*
X0176221Y0224169D01*
X0176227Y0224237D01*
X0176237Y0224305D01*
X0176251Y0224372D01*
X0176269Y0224439D01*
X0176290Y0224504D01*
X0176316Y0224568D01*
X0176345Y0224630D01*
X0176377Y0224690D01*
X0176413Y0224749D01*
X0176453Y0224805D01*
X0176495Y0224859D01*
X0176541Y0224910D01*
X0176590Y0224959D01*
X0176641Y0225005D01*
X0176695Y0225047D01*
X0176751Y0225087D01*
X0176809Y0225123D01*
X0176870Y0225155D01*
X0176932Y0225184D01*
X0176996Y0225210D01*
X0177061Y0225231D01*
X0177128Y0225249D01*
X0177195Y0225263D01*
X0177263Y0225273D01*
X0177331Y0225279D01*
X0177400Y0225281D01*
X0177469Y0225279D01*
X0177537Y0225273D01*
X0177605Y0225263D01*
X0177672Y0225249D01*
X0177739Y0225231D01*
X0177804Y0225210D01*
X0177868Y0225184D01*
X0177930Y0225155D01*
X0177990Y0225123D01*
X0178049Y0225087D01*
X0178105Y0225047D01*
X0178159Y0225005D01*
X0178210Y0224959D01*
X0178259Y0224910D01*
X0178305Y0224859D01*
X0178347Y0224805D01*
X0178387Y0224749D01*
X0178423Y0224690D01*
X0178455Y0224630D01*
X0178484Y0224568D01*
X0178510Y0224504D01*
X0178531Y0224439D01*
X0178549Y0224372D01*
X0178563Y0224305D01*
X0178573Y0224237D01*
X0178579Y0224169D01*
X0178581Y0224100D01*
X0178579Y0224031D01*
X0178573Y0223963D01*
X0178563Y0223895D01*
X0178549Y0223828D01*
X0178531Y0223761D01*
X0178510Y0223696D01*
X0178484Y0223632D01*
X0178455Y0223570D01*
X0178423Y0223509D01*
X0178387Y0223451D01*
X0178347Y0223395D01*
X0178305Y0223341D01*
X0178259Y0223290D01*
X0178210Y0223241D01*
X0178159Y0223195D01*
X0178105Y0223153D01*
X0178049Y0223113D01*
X0177991Y0223077D01*
X0177930Y0223045D01*
X0177868Y0223016D01*
X0177804Y0222990D01*
X0177739Y0222969D01*
X0177672Y0222951D01*
X0177605Y0222937D01*
X0177537Y0222927D01*
X0177469Y0222921D01*
X0177400Y0222919D01*
X0177331Y0222921D01*
X0177263Y0222927D01*
X0177195Y0222937D01*
X0177128Y0222951D01*
X0177061Y0222969D01*
X0176996Y0222990D01*
X0176932Y0223016D01*
X0176870Y0223045D01*
X0176809Y0223077D01*
X0176751Y0223113D01*
X0176695Y0223153D01*
X0176641Y0223195D01*
X0176590Y0223241D01*
X0176541Y0223290D01*
X0176495Y0223341D01*
X0176453Y0223395D01*
X0176413Y0223451D01*
X0176377Y0223509D01*
X0176345Y0223570D01*
X0176316Y0223632D01*
X0176290Y0223696D01*
X0176269Y0223761D01*
X0176251Y0223828D01*
X0176237Y0223895D01*
X0176227Y0223963D01*
X0176221Y0224031D01*
X0176219Y0224100D01*
X0006219Y0224100D02*
X0006221Y0224169D01*
X0006227Y0224237D01*
X0006237Y0224305D01*
X0006251Y0224372D01*
X0006269Y0224439D01*
X0006290Y0224504D01*
X0006316Y0224568D01*
X0006345Y0224630D01*
X0006377Y0224690D01*
X0006413Y0224749D01*
X0006453Y0224805D01*
X0006495Y0224859D01*
X0006541Y0224910D01*
X0006590Y0224959D01*
X0006641Y0225005D01*
X0006695Y0225047D01*
X0006751Y0225087D01*
X0006809Y0225123D01*
X0006870Y0225155D01*
X0006932Y0225184D01*
X0006996Y0225210D01*
X0007061Y0225231D01*
X0007128Y0225249D01*
X0007195Y0225263D01*
X0007263Y0225273D01*
X0007331Y0225279D01*
X0007400Y0225281D01*
X0007469Y0225279D01*
X0007537Y0225273D01*
X0007605Y0225263D01*
X0007672Y0225249D01*
X0007739Y0225231D01*
X0007804Y0225210D01*
X0007868Y0225184D01*
X0007930Y0225155D01*
X0007990Y0225123D01*
X0008049Y0225087D01*
X0008105Y0225047D01*
X0008159Y0225005D01*
X0008210Y0224959D01*
X0008259Y0224910D01*
X0008305Y0224859D01*
X0008347Y0224805D01*
X0008387Y0224749D01*
X0008423Y0224690D01*
X0008455Y0224630D01*
X0008484Y0224568D01*
X0008510Y0224504D01*
X0008531Y0224439D01*
X0008549Y0224372D01*
X0008563Y0224305D01*
X0008573Y0224237D01*
X0008579Y0224169D01*
X0008581Y0224100D01*
X0008579Y0224031D01*
X0008573Y0223963D01*
X0008563Y0223895D01*
X0008549Y0223828D01*
X0008531Y0223761D01*
X0008510Y0223696D01*
X0008484Y0223632D01*
X0008455Y0223570D01*
X0008423Y0223509D01*
X0008387Y0223451D01*
X0008347Y0223395D01*
X0008305Y0223341D01*
X0008259Y0223290D01*
X0008210Y0223241D01*
X0008159Y0223195D01*
X0008105Y0223153D01*
X0008049Y0223113D01*
X0007991Y0223077D01*
X0007930Y0223045D01*
X0007868Y0223016D01*
X0007804Y0222990D01*
X0007739Y0222969D01*
X0007672Y0222951D01*
X0007605Y0222937D01*
X0007537Y0222927D01*
X0007469Y0222921D01*
X0007400Y0222919D01*
X0007331Y0222921D01*
X0007263Y0222927D01*
X0007195Y0222937D01*
X0007128Y0222951D01*
X0007061Y0222969D01*
X0006996Y0222990D01*
X0006932Y0223016D01*
X0006870Y0223045D01*
X0006809Y0223077D01*
X0006751Y0223113D01*
X0006695Y0223153D01*
X0006641Y0223195D01*
X0006590Y0223241D01*
X0006541Y0223290D01*
X0006495Y0223341D01*
X0006453Y0223395D01*
X0006413Y0223451D01*
X0006377Y0223509D01*
X0006345Y0223570D01*
X0006316Y0223632D01*
X0006290Y0223696D01*
X0006269Y0223761D01*
X0006251Y0223828D01*
X0006237Y0223895D01*
X0006227Y0223963D01*
X0006221Y0224031D01*
X0006219Y0224100D01*
D11*
X0001900Y0230900D02*
X0001900Y0002100D01*
X0183200Y0002100D01*
X0183200Y0230900D01*
X0001900Y0230900D01*
D12*
X0090859Y0227252D02*
X0090859Y0226901D01*
X0091559Y0226201D01*
X0091559Y0225150D01*
X0091559Y0226201D02*
X0092260Y0226901D01*
X0092260Y0227252D01*
X0093069Y0226901D02*
X0093069Y0226551D01*
X0093419Y0226201D01*
X0094470Y0226201D01*
X0094470Y0227252D02*
X0093419Y0227252D01*
X0093069Y0226901D01*
X0093419Y0226201D02*
X0093069Y0225851D01*
X0093069Y0225500D01*
X0093419Y0225150D01*
X0094470Y0225150D01*
X0094470Y0227252D01*
X0095279Y0226901D02*
X0095629Y0227252D01*
X0096680Y0227252D01*
X0096680Y0225150D01*
X0095629Y0225150D01*
X0095279Y0225500D01*
X0095279Y0226901D01*
X0097488Y0227252D02*
X0097488Y0225150D01*
X0098890Y0227252D01*
X0098890Y0225150D01*
X0099698Y0225150D02*
X0099698Y0226551D01*
X0100399Y0227252D01*
X0101099Y0226551D01*
X0101099Y0225150D01*
X0101099Y0226201D02*
X0099698Y0226201D01*
X0101908Y0227252D02*
X0103309Y0227252D01*
X0102609Y0227252D02*
X0102609Y0225150D01*
X0104118Y0225500D02*
X0104468Y0225150D01*
X0105169Y0225150D01*
X0105519Y0225500D01*
X0105169Y0226201D02*
X0104468Y0226201D01*
X0104118Y0225851D01*
X0104118Y0225500D01*
X0105169Y0226201D02*
X0105519Y0226551D01*
X0105519Y0226901D01*
X0105169Y0227252D01*
X0104468Y0227252D01*
X0104118Y0226901D01*
X0109859Y0225250D02*
X0111260Y0225250D01*
X0111260Y0227352D01*
X0112069Y0227352D02*
X0113470Y0227352D01*
X0112769Y0227352D02*
X0112769Y0225250D01*
X0114278Y0225600D02*
X0114278Y0227352D01*
X0115680Y0227352D02*
X0115680Y0225600D01*
X0115329Y0225250D01*
X0114629Y0225250D01*
X0114278Y0225600D01*
X0116488Y0225600D02*
X0116488Y0227001D01*
X0116839Y0227352D01*
X0117539Y0227352D01*
X0117890Y0227001D01*
X0117890Y0225600D01*
X0117539Y0225250D01*
X0116839Y0225250D01*
X0116488Y0225600D01*
X0123459Y0225400D02*
X0123459Y0226801D01*
X0123809Y0227152D01*
X0124860Y0227152D01*
X0124860Y0225050D01*
X0123809Y0225050D01*
X0123459Y0225400D01*
X0125669Y0225050D02*
X0125669Y0227152D01*
X0127070Y0227152D02*
X0125669Y0225050D01*
X0127070Y0225050D02*
X0127070Y0227152D01*
X0127878Y0226801D02*
X0128229Y0227152D01*
X0128929Y0227152D01*
X0129280Y0226801D01*
X0129280Y0225400D01*
X0128929Y0225050D01*
X0128229Y0225050D01*
X0127878Y0225400D01*
X0127878Y0226101D01*
X0128579Y0226101D01*
X0136659Y0226301D02*
X0137009Y0225951D01*
X0138060Y0225951D01*
X0137359Y0225951D02*
X0136659Y0225250D01*
X0136659Y0226301D02*
X0136659Y0227001D01*
X0137009Y0227352D01*
X0138060Y0227352D01*
X0138060Y0225250D01*
X0139569Y0225250D02*
X0139569Y0227352D01*
X0138869Y0227352D02*
X0140270Y0227352D01*
X0141078Y0227352D02*
X0141078Y0225600D01*
X0141429Y0225250D01*
X0142129Y0225250D01*
X0142480Y0225600D01*
X0142480Y0227352D01*
X0143288Y0227001D02*
X0143639Y0227352D01*
X0144339Y0227352D01*
X0144690Y0227001D01*
X0144690Y0225600D01*
X0144339Y0225250D01*
X0143639Y0225250D01*
X0143288Y0225600D01*
X0143288Y0227001D01*
X0007752Y0112741D02*
X0007752Y0111340D01*
X0007752Y0112041D02*
X0005650Y0112041D01*
X0006000Y0110531D02*
X0005650Y0110181D01*
X0005650Y0109480D01*
X0006000Y0109130D01*
X0006701Y0109480D02*
X0006701Y0110181D01*
X0006351Y0110531D01*
X0006000Y0110531D01*
X0006701Y0109480D02*
X0007051Y0109130D01*
X0007401Y0109130D01*
X0007752Y0109480D01*
X0007752Y0110181D01*
X0007401Y0110531D01*
X0007401Y0108322D02*
X0006701Y0108322D01*
X0006351Y0107971D01*
X0006351Y0106920D01*
X0006351Y0107621D02*
X0005650Y0108322D01*
X0005650Y0106920D02*
X0007752Y0106920D01*
X0007752Y0107971D01*
X0007401Y0108322D01*
X0007752Y0106112D02*
X0005650Y0106112D01*
X0007752Y0104710D01*
X0005650Y0104710D01*
X0006000Y0101141D02*
X0007401Y0101141D01*
X0007752Y0100791D01*
X0007752Y0100090D01*
X0007401Y0099740D01*
X0006000Y0099740D01*
X0005650Y0100090D01*
X0005650Y0100791D01*
X0006000Y0101141D01*
X0005650Y0098931D02*
X0007752Y0098931D01*
X0007752Y0097530D02*
X0005650Y0097530D01*
X0006351Y0098231D01*
X0005650Y0098931D01*
X0006000Y0096722D02*
X0005650Y0096371D01*
X0005650Y0095671D01*
X0006000Y0095320D01*
X0006701Y0095671D02*
X0007051Y0095320D01*
X0007401Y0095320D01*
X0007752Y0095671D01*
X0007752Y0096371D01*
X0007401Y0096722D01*
X0006701Y0096371D02*
X0006351Y0096722D01*
X0006000Y0096722D01*
X0006701Y0096371D02*
X0006701Y0095671D01*
X0005950Y0090241D02*
X0007001Y0089190D01*
X0006651Y0088840D02*
X0008052Y0090241D01*
X0008052Y0088840D02*
X0005950Y0088840D01*
X0006300Y0088031D02*
X0005950Y0087681D01*
X0005950Y0086981D01*
X0006300Y0086630D01*
X0007701Y0086630D01*
X0008052Y0086981D01*
X0008052Y0087681D01*
X0007701Y0088031D01*
X0008052Y0085822D02*
X0008052Y0084420D01*
X0008052Y0085121D02*
X0005950Y0085121D01*
X0006500Y0080941D02*
X0006150Y0080591D01*
X0006150Y0079890D01*
X0006500Y0079540D01*
X0006851Y0078731D02*
X0008252Y0078731D01*
X0007901Y0079540D02*
X0008252Y0079890D01*
X0008252Y0080591D01*
X0007901Y0080941D01*
X0007551Y0080941D01*
X0007201Y0080591D01*
X0006851Y0080941D01*
X0006500Y0080941D01*
X0007201Y0080591D02*
X0007201Y0080241D01*
X0006851Y0078731D02*
X0006150Y0078031D01*
X0006851Y0077330D01*
X0008252Y0077330D01*
X0007901Y0076522D02*
X0007551Y0076522D01*
X0007201Y0076171D01*
X0006851Y0076522D01*
X0006500Y0076522D01*
X0006150Y0076171D01*
X0006150Y0075471D01*
X0006500Y0075120D01*
X0007201Y0075821D02*
X0007201Y0076171D01*
X0007901Y0076522D02*
X0008252Y0076171D01*
X0008252Y0075471D01*
X0007901Y0075120D01*
X0008101Y0071741D02*
X0006700Y0071741D01*
X0006350Y0071391D01*
X0006350Y0070340D01*
X0008452Y0070340D01*
X0008452Y0071391D01*
X0008101Y0071741D01*
X0008452Y0069531D02*
X0006350Y0069531D01*
X0008452Y0068130D01*
X0006350Y0068130D01*
X0006700Y0067322D02*
X0007401Y0067322D01*
X0007401Y0066621D01*
X0008101Y0067322D02*
X0008452Y0066971D01*
X0008452Y0066271D01*
X0008101Y0065920D01*
X0006700Y0065920D01*
X0006350Y0066271D01*
X0006350Y0066971D01*
X0006700Y0067322D01*
X0006700Y0060741D02*
X0006350Y0060391D01*
X0006350Y0059690D01*
X0006700Y0059340D01*
X0007401Y0059690D02*
X0007401Y0060391D01*
X0007051Y0060741D01*
X0006700Y0060741D01*
X0007401Y0059690D02*
X0007751Y0059340D01*
X0008101Y0059340D01*
X0008452Y0059690D01*
X0008452Y0060391D01*
X0008101Y0060741D01*
X0008452Y0058531D02*
X0006350Y0058531D01*
X0006350Y0057130D02*
X0008452Y0057130D01*
X0007751Y0057831D01*
X0008452Y0058531D01*
X0008452Y0056322D02*
X0008452Y0054920D01*
X0008452Y0055621D02*
X0006350Y0055621D01*
X0172750Y0035391D02*
X0172750Y0034690D01*
X0173100Y0034340D01*
X0173451Y0033531D02*
X0174852Y0033531D01*
X0174501Y0034340D02*
X0174852Y0034690D01*
X0174852Y0035391D01*
X0174501Y0035741D01*
X0174151Y0035741D01*
X0173801Y0035391D01*
X0173451Y0035741D01*
X0173100Y0035741D01*
X0172750Y0035391D01*
X0173801Y0035391D02*
X0173801Y0035041D01*
X0173451Y0033531D02*
X0172750Y0032831D01*
X0173451Y0032130D01*
X0174852Y0032130D01*
X0174501Y0031322D02*
X0174151Y0031322D01*
X0173801Y0030971D01*
X0173451Y0031322D01*
X0173100Y0031322D01*
X0172750Y0030971D01*
X0172750Y0030271D01*
X0173100Y0029920D01*
X0173801Y0030621D02*
X0173801Y0030971D01*
X0174501Y0031322D02*
X0174852Y0030971D01*
X0174852Y0030271D01*
X0174501Y0029920D01*
X0173801Y0029112D02*
X0173801Y0027710D01*
X0174501Y0028411D02*
X0173100Y0028411D01*
X0173500Y0019141D02*
X0174901Y0019141D01*
X0175252Y0018791D01*
X0175252Y0017740D01*
X0173150Y0017740D01*
X0173150Y0018791D01*
X0173500Y0019141D01*
X0173150Y0016931D02*
X0175252Y0016931D01*
X0175252Y0015530D02*
X0173150Y0015530D01*
X0173500Y0014722D02*
X0174201Y0014722D01*
X0174201Y0014021D01*
X0174901Y0014722D02*
X0175252Y0014371D01*
X0175252Y0013671D01*
X0174901Y0013320D01*
X0173500Y0013320D01*
X0173150Y0013671D01*
X0173150Y0014371D01*
X0173500Y0014722D01*
X0175252Y0015530D02*
X0173150Y0016931D01*
D13*
X0022650Y0055850D02*
X0020150Y0053350D01*
X0015150Y0053350D01*
X0012650Y0055850D01*
X0012650Y0060850D01*
X0015150Y0063350D01*
X0012650Y0065850D01*
X0012650Y0070850D01*
X0015150Y0073350D01*
X0012650Y0075850D01*
X0012650Y0080850D01*
X0015150Y0083350D01*
X0012650Y0085850D01*
X0012650Y0090850D01*
X0015150Y0093350D01*
X0012650Y0095850D01*
X0012650Y0100850D01*
X0015150Y0103350D01*
X0012650Y0105850D01*
X0012650Y0110850D01*
X0015150Y0113350D01*
X0020150Y0113350D01*
X0022650Y0110850D01*
X0022650Y0105850D01*
X0020150Y0103350D01*
X0022650Y0100850D01*
X0022650Y0095850D01*
X0020150Y0093350D01*
X0015150Y0093350D01*
X0020150Y0093350D02*
X0022650Y0090850D01*
X0022650Y0085850D01*
X0020150Y0083350D01*
X0022650Y0080850D01*
X0022650Y0075850D01*
X0020150Y0073350D01*
X0022650Y0070850D01*
X0022650Y0065850D01*
X0020150Y0063350D01*
X0022650Y0060850D01*
X0022650Y0055850D01*
X0020150Y0063350D02*
X0015150Y0063350D01*
X0015150Y0073350D02*
X0020150Y0073350D01*
X0020150Y0083350D02*
X0015150Y0083350D01*
X0015150Y0103350D02*
X0020150Y0103350D01*
D14*
X0011345Y0040486D02*
X0011345Y0016076D01*
X0070794Y0016076D01*
X0070794Y0012927D01*
X0011345Y0012927D01*
X0011345Y0016076D01*
X0011345Y0040486D02*
X0070794Y0040486D01*
X0070794Y0016076D01*
X0077345Y0015076D02*
X0077345Y0011927D01*
X0123014Y0011927D01*
X0123014Y0015076D01*
X0077345Y0015076D01*
X0077345Y0039486D01*
X0123014Y0039486D01*
X0123014Y0015076D01*
X0143014Y0011210D02*
X0167424Y0011210D01*
X0167424Y0038769D01*
X0170573Y0038769D01*
X0170573Y0011210D01*
X0167424Y0011210D01*
X0167424Y0038769D02*
X0143014Y0038769D01*
X0143014Y0011210D01*
X0149455Y0195714D02*
X0090006Y0195714D01*
X0090006Y0220124D01*
X0149455Y0220124D01*
X0149455Y0195714D01*
X0149455Y0220124D02*
X0149455Y0223273D01*
X0090006Y0223273D01*
X0090006Y0220124D01*
X0077455Y0220124D02*
X0018006Y0220124D01*
X0018006Y0223273D01*
X0077455Y0223273D01*
X0077455Y0220124D01*
X0077455Y0195714D01*
X0018006Y0195714D01*
X0018006Y0220124D01*
M02*
